<svg width="126" height="39" viewBox="0 0 126 39" fill="none" xmlns="http://www.w3.org/2000/svg">
<g clip-path="url(#clip0_51_417)">
<path d="M18.7393 8.87608C18.7393 8.87608 14.6978 6.54274 11.7811 11.5946C10.8886 13.1404 10.3106 14.5849 9.95299 15.9277C9.21676 16.1762 4.54725 17.845 5.94038 23.041L10.0202 21.9479C12.0975 28.6166 20.5199 31.4585 20.5199 31.4585C20.5199 31.4585 18.7699 34.4896 22.8114 36.823L24.1343 32.1982L27.478 28.7401C23.4366 26.4067 21.6866 29.4378 21.6866 29.4378C21.6866 29.4378 16.3627 25.219 18.8792 18.387L21.7285 20.0319C22.8951 18.0112 21.463 16.2683 20.3832 15.362L21.614 13.2301C23.9474 9.18868 23.5203 7.59499 22.51 7.01165C21.4996 6.42832 19.3226 7.86571 18.7393 8.87608ZM18.583 11.4801C18.2621 12.0358 17.545 12.228 16.9893 11.9072C16.4336 11.5863 16.2414 10.8692 16.5622 10.3135C16.8831 9.75777 17.6002 9.56561 18.1559 9.88644C18.7116 10.2073 18.9038 10.9244 18.583 11.4801Z" fill="#28A1C3"/>
</g>
<path d="M37.2642 27V12.4545H40.3395V24.4645H46.5753V27H37.2642ZM55.5508 22.3551V16.0909H58.5763V27H55.6715V25.0185H55.5579C55.3117 25.6577 54.9021 26.1714 54.3292 26.5597C53.761 26.9479 53.0674 27.142 52.2482 27.142C51.5191 27.142 50.8775 26.9763 50.3235 26.6449C49.7695 26.3134 49.3363 25.8423 49.0238 25.2315C48.716 24.6207 48.5598 23.8892 48.555 23.0369V16.0909H51.5806V22.4972C51.5853 23.1411 51.7582 23.6501 52.0991 24.0241C52.44 24.3982 52.8969 24.5852 53.4698 24.5852C53.8344 24.5852 54.1753 24.5024 54.4925 24.3366C54.8098 24.1662 55.0655 23.9152 55.2596 23.5838C55.4585 23.2524 55.5555 22.8428 55.5508 22.3551ZM60.9964 27V16.0909H63.88V18.0156H64.0078C64.2351 17.3764 64.6139 16.8722 65.1442 16.5028C65.6745 16.1335 66.3089 15.9489 67.0476 15.9489C67.7957 15.9489 68.4325 16.1359 68.9581 16.5099C69.4837 16.8793 69.834 17.3812 70.0092 18.0156H70.1229C70.3454 17.3906 70.7479 16.8911 71.3303 16.517C71.9174 16.1383 72.611 15.9489 73.4112 15.9489C74.4292 15.9489 75.2554 16.2732 75.8899 16.9219C76.5291 17.5658 76.8487 18.4796 76.8487 19.6634V27H73.8303V20.2599C73.8303 19.6539 73.6693 19.1993 73.3473 18.8963C73.0253 18.5933 72.6229 18.4418 72.1399 18.4418C71.5907 18.4418 71.1622 18.617 70.8544 18.9673C70.5466 19.313 70.3928 19.7699 70.3928 20.3381V27H67.4595V20.196C67.4595 19.661 67.3056 19.2348 66.9979 18.9176C66.6948 18.6004 66.2947 18.4418 65.7976 18.4418C65.4614 18.4418 65.1584 18.527 64.8885 18.6974C64.6233 18.8632 64.4126 19.0975 64.2564 19.4006C64.1001 19.6989 64.022 20.0492 64.022 20.4517V27H60.9964ZM79.2955 27V12.4545H82.321V17.9233H82.4134C82.5459 17.6297 82.7377 17.3314 82.9886 17.0284C83.2443 16.7206 83.5758 16.465 83.983 16.2614C84.3949 16.053 84.9063 15.9489 85.517 15.9489C86.3125 15.9489 87.0464 16.1572 87.7188 16.5739C88.3911 16.9858 88.9285 17.6084 89.331 18.4418C89.7334 19.2704 89.9347 20.3097 89.9347 21.5597C89.9347 22.7765 89.7382 23.804 89.3452 24.642C88.9569 25.4754 88.4266 26.1075 87.7543 26.5384C87.0866 26.9645 86.3385 27.1776 85.5099 27.1776C84.9228 27.1776 84.4233 27.0805 84.0114 26.8864C83.6042 26.6922 83.2704 26.4484 83.0099 26.1548C82.7495 25.8565 82.5507 25.5559 82.4134 25.2528H82.2784V27H79.2955ZM82.2571 21.5455C82.2571 22.1941 82.3471 22.7599 82.527 23.2429C82.7069 23.7259 82.9673 24.1023 83.3082 24.3722C83.6491 24.6373 84.0634 24.7699 84.5511 24.7699C85.0436 24.7699 85.4602 24.6349 85.8011 24.3651C86.142 24.0904 86.4001 23.7116 86.5753 23.2287C86.7552 22.741 86.8452 22.1799 86.8452 21.5455C86.8452 20.9157 86.7576 20.3617 86.5824 19.8835C86.4072 19.4053 86.1491 19.0312 85.8082 18.7614C85.4673 18.4915 85.0483 18.3565 84.5511 18.3565C84.0587 18.3565 83.642 18.4867 83.3011 18.7472C82.965 19.0076 82.7069 19.3769 82.527 19.8551C82.3471 20.3333 82.2571 20.8968 82.2571 21.5455ZM95.0643 27.206C94.3683 27.206 93.748 27.0852 93.2035 26.8438C92.659 26.5975 92.2281 26.2353 91.9109 25.7571C91.5984 25.2741 91.4421 24.6728 91.4421 23.9531C91.4421 23.3471 91.5534 22.8381 91.7759 22.4261C91.9985 22.0142 92.3015 21.6828 92.685 21.4318C93.0685 21.1809 93.5041 20.9915 93.9918 20.8636C94.4843 20.7358 95.0004 20.6458 95.5401 20.5938C96.1746 20.5275 96.686 20.4659 97.0742 20.4091C97.4625 20.3475 97.7442 20.2576 97.9194 20.1392C98.0946 20.0208 98.1822 19.8456 98.1822 19.6136V19.571C98.1822 19.1212 98.0401 18.7732 97.756 18.527C97.4767 18.2808 97.079 18.1577 96.5629 18.1577C96.0183 18.1577 95.5851 18.2784 95.2631 18.5199C94.9412 18.7566 94.7281 19.0549 94.6239 19.4148L91.8256 19.1875C91.9677 18.5246 92.247 17.9517 92.6637 17.4688C93.0804 16.9811 93.6178 16.607 94.2759 16.3466C94.9388 16.0814 95.7058 15.9489 96.5771 15.9489C97.1831 15.9489 97.7631 16.0199 98.3171 16.1619C98.8758 16.304 99.3706 16.5241 99.8015 16.8224C100.237 17.1207 100.58 17.5043 100.831 17.973C101.082 18.437 101.208 18.9934 101.208 19.642V27H98.3384V25.4872H98.2532C98.078 25.8281 97.8436 26.1288 97.5501 26.3892C97.2565 26.6449 96.9038 26.8461 96.4918 26.9929C96.0799 27.1349 95.604 27.206 95.0643 27.206ZM95.9308 25.1179C96.3758 25.1179 96.7688 25.0303 97.1097 24.8551C97.4506 24.6752 97.7182 24.4337 97.9123 24.1307C98.1064 23.8277 98.2035 23.4844 98.2035 23.1009V21.9432C98.1088 22.0047 97.9786 22.0616 97.8129 22.1136C97.6519 22.161 97.4696 22.206 97.266 22.2486C97.0624 22.2865 96.8588 22.322 96.6552 22.3551C96.4516 22.3835 96.2669 22.4096 96.1012 22.4332C95.7461 22.4853 95.436 22.5682 95.1708 22.6818C94.9057 22.7955 94.6997 22.9493 94.5529 23.1435C94.4061 23.3329 94.3327 23.5696 94.3327 23.8537C94.3327 24.2656 94.4819 24.5805 94.7802 24.7983C95.0832 25.0114 95.4667 25.1179 95.9308 25.1179ZM105.324 27.1847C104.855 27.1847 104.452 27.0189 104.116 26.6875C103.785 26.3513 103.619 25.9489 103.619 25.4801C103.619 25.0161 103.785 24.6184 104.116 24.2869C104.452 23.9555 104.855 23.7898 105.324 23.7898C105.778 23.7898 106.176 23.9555 106.517 24.2869C106.858 24.6184 107.028 25.0161 107.028 25.4801C107.028 25.7926 106.948 26.0791 106.787 26.3395C106.63 26.5952 106.424 26.8011 106.169 26.9574C105.913 27.1089 105.631 27.1847 105.324 27.1847ZM112.623 27.206C111.927 27.206 111.307 27.0852 110.762 26.8438C110.218 26.5975 109.787 26.2353 109.469 25.7571C109.157 25.2741 109.001 24.6728 109.001 23.9531C109.001 23.3471 109.112 22.8381 109.335 22.4261C109.557 22.0142 109.86 21.6828 110.244 21.4318C110.627 21.1809 111.063 20.9915 111.55 20.8636C112.043 20.7358 112.559 20.6458 113.099 20.5938C113.733 20.5275 114.245 20.4659 114.633 20.4091C115.021 20.3475 115.303 20.2576 115.478 20.1392C115.653 20.0208 115.741 19.8456 115.741 19.6136V19.571C115.741 19.1212 115.599 18.7732 115.315 18.527C115.035 18.2808 114.638 18.1577 114.121 18.1577C113.577 18.1577 113.144 18.2784 112.822 18.5199C112.5 18.7566 112.287 19.0549 112.183 19.4148L109.384 19.1875C109.526 18.5246 109.806 17.9517 110.222 17.4688C110.639 16.9811 111.176 16.607 111.835 16.3466C112.497 16.0814 113.264 15.9489 114.136 15.9489C114.742 15.9489 115.322 16.0199 115.876 16.1619C116.434 16.304 116.929 16.5241 117.36 16.8224C117.796 17.1207 118.139 17.5043 118.39 17.973C118.641 18.437 118.766 18.9934 118.766 19.642V27H115.897V25.4872H115.812C115.637 25.8281 115.402 26.1288 115.109 26.3892C114.815 26.6449 114.462 26.8461 114.05 26.9929C113.638 27.1349 113.163 27.206 112.623 27.206ZM113.489 25.1179C113.934 25.1179 114.327 25.0303 114.668 24.8551C115.009 24.6752 115.277 24.4337 115.471 24.1307C115.665 23.8277 115.762 23.4844 115.762 23.1009V21.9432C115.667 22.0047 115.537 22.0616 115.371 22.1136C115.21 22.161 115.028 22.206 114.825 22.2486C114.621 22.2865 114.417 22.322 114.214 22.3551C114.01 22.3835 113.826 22.4096 113.66 22.4332C113.305 22.4853 112.995 22.5682 112.729 22.6818C112.464 22.7955 112.258 22.9493 112.112 23.1435C111.965 23.3329 111.891 23.5696 111.891 23.8537C111.891 24.2656 112.04 24.5805 112.339 24.7983C112.642 25.0114 113.025 25.1179 113.489 25.1179ZM121.114 27V16.0909H124.139V27H121.114ZM122.634 14.6847C122.184 14.6847 121.798 14.5355 121.476 14.2372C121.159 13.9342 121 13.572 121 13.1506C121 12.7339 121.159 12.3764 121.476 12.0781C121.798 11.7751 122.184 11.6236 122.634 11.6236C123.083 11.6236 123.467 11.7751 123.784 12.0781C124.106 12.3764 124.267 12.7339 124.267 13.1506C124.267 13.572 124.106 13.9342 123.784 14.2372C123.467 14.5355 123.083 14.6847 122.634 14.6847Z" fill="#28A1C3"/>
<defs>
<clipPath id="clip0_51_417">
<rect width="28" height="28" fill="white" transform="translate(0 25) rotate(-60)"/>
</clipPath>
</defs>
</svg>
