<svg width="195" height="136" viewBox="0 0 195 136" fill="none" xmlns="http://www.w3.org/2000/svg">
<path opacity="0.5" fill-rule="evenodd" clip-rule="evenodd" d="M90.0964 0.489205C109.981 3.81349 114.075 30.2375 129.047 43.7532C145.802 58.8788 180.597 60.1697 181.218 82.7477C181.836 105.196 167.444 122.682 145.52 130.22C128.715 135.998 116.392 123.674 97.4172 124.78C77.01 125.97 36.4212 143.36 19.7272 131.41C7.14 122.4 18.02 100.3 16.4972 91.8C13.8397 76.9664 0.355863 67.7929 0.00719959 55.59C-0.497923 37.9112 25.7132 38.3185 35.5292 28.1192C50.2315 12.8427 69.1961 -3.00486 90.0964 0.489205Z" fill="url(#paint0_linear_705_4139)"/>
<path d="M32.5651 87.7083C27.9936 83.4041 25.9726 79.1493 25.84 72.76L36.55 78.03C36.55 78.03 34.8727 80.2285 34.51 81.77C34.1578 83.2666 34.1704 85.2647 34.2644 86.8435C34.3187 87.7564 33.2309 88.3351 32.5651 87.7083Z" fill="url(#paint1_linear_705_4139)"/>
<path d="M5.44004 51.17C4.42003 50.66 3.57004 51.17 3.57004 51.17C1.39404 57.97 23.63 73.78 36.04 79.05C47.872 84.49 64.3167 87.89 71.06 88.91C102.34 92.582 134.187 87.38 146.2 84.32C146.2 84.32 156.225 81.831 162.52 82.96C167.447 83.8436 174.42 87.72 174.42 87.72C180.62 89.084 188.987 87.3012 193.207 85.9022C193.791 85.7086 194.031 85.021 193.606 84.5762C192.266 83.1733 189.682 81.9948 184.11 80.24C184.11 80.24 176.663 78.0391 175.95 74.12C175.528 71.8015 177.132 68.6338 178.412 66.5607C178.892 65.7838 178.227 64.7663 177.358 65.0472C169.597 67.5566 166.69 74.447 162.52 77.69C141.95 80.24 115.43 72.08 105.74 67.15C103.121 65.7562 101.83 64.43 101.49 62.05C101.218 60.826 108.12 57.8 111.35 55.76C111.641 55.0937 111.547 54.7921 110.84 54.4C102.136 51.136 89.42 54.6267 84.15 56.78C84.15 56.78 78.3805 59.22 74.46 59.5C69.7 59.84 66.9678 59.163 62.22 58.48C49.7698 56.689 39.61 51.85 31.45 48.96C25.058 46.92 18.02 50.15 15.3 52.02C14.6362 52.473 14.2639 52.3768 13.6 52.02C5.95003 48.96 5.44004 51.17 5.44004 51.17Z" fill="url(#paint2_linear_705_4139)"/>
<path d="M22.78 64.6001C18.0083 62.4339 13.5576 58.4866 5.44001 51.1701C4.85112 50.8515 4.60277 50.8086 3.57 51.17C1.87001 59.33 26.69 74.8421 35.53 78.8801C49.3 85.17 71.4 88.91 71.4 88.91C94.35 91.97 126.82 89.08 146.2 84.3201C126.773 86.4633 115.733 87.827 97.58 88.5701C83.13 88.06 67.15 81.43 61.71 76.8401L42.84 73.44C42.84 73.44 38.9606 68.1108 35.53 66.4701C31.62 64.6001 27.5517 66.7663 22.78 64.6001Z" fill="url(#paint3_linear_705_4139)"/>
<path d="M42.67 75.1402C42.3658 74.5501 42.67 73.4402 42.67 73.4402C47.2533 71.5144 52.028 72.8927 61.88 76.8402C61.88 76.8402 62.7032 79.6318 63.58 81.2602C65.96 85.6802 73.95 88.5702 73.61 92.4802C71.91 95.7102 48.28 86.0202 42.67 75.1402Z" fill="url(#paint4_linear_705_4139)"/>
<path d="M26.01 54.4C26.01 54.7756 25.7055 54.91 25.33 54.91C24.9544 54.91 24.48 54.7756 24.48 54.4C24.48 54.0245 24.9544 53.89 25.33 53.89C25.7055 53.89 26.01 54.0245 26.01 54.4Z" fill="url(#paint5_linear_705_4139)"/>
<path d="M25.67 54.4C25.67 54.74 25.67 54.74 25.33 54.91C24.9544 54.91 24.48 54.7756 24.48 54.4C24.48 54.0245 24.9544 53.89 25.33 53.89C25.5 53.89 25.67 54.06 25.67 54.4Z" fill="url(#paint6_linear_705_4139)"/>
<g clip-path="url(#clip0_705_4139)">
<path d="M75.2784 70.5706C75.8453 72.4246 75.6524 74.4279 74.7422 76.1397C73.832 77.8515 72.2791 79.1316 70.4251 79.6984C68.5711 80.2653 66.5678 80.0724 64.856 79.1622C63.1442 78.252 61.8641 76.6991 61.2973 74.8451C60.7304 72.9911 60.9233 70.9878 61.8335 69.276C62.7437 67.5642 64.2966 66.2841 66.1506 65.7173C68.0046 65.1504 70.0079 65.3433 71.7197 66.2535C73.4315 67.1637 74.7116 68.7166 75.2784 70.5706ZM70.9999 68.9835C70.9185 68.9404 70.8292 68.9142 70.7373 68.9063C70.6455 68.8985 70.5531 68.9093 70.4655 68.938C70.378 68.9668 70.2971 69.0128 70.2278 69.0735C70.1585 69.1342 70.1021 69.2083 70.062 69.2913L68.2094 74.0858L65.8211 72.8151C65.6614 72.7374 65.4779 72.7246 65.309 72.7795C65.1401 72.8344 64.9992 72.9527 64.9158 73.1095C64.8324 73.2663 64.8132 73.4493 64.8621 73.62C64.911 73.7907 65.0243 73.9357 65.178 74.0246L68.1973 75.6307C68.2786 75.6738 68.3677 75.7001 68.4594 75.7081C68.5511 75.716 68.6435 75.7054 68.731 75.6769C68.8185 75.6483 68.8993 75.6025 68.9687 75.542C69.0381 75.4815 69.0946 75.4077 69.1348 75.325L71.29 69.8981C71.3711 69.7381 71.3863 69.5527 71.3322 69.3816C71.2781 69.2106 71.1591 69.0675 71.0008 68.9833L70.9999 68.9835Z" fill="url(#paint7_linear_705_4139)"/>
</g>
<path d="M58.65 52.7L49.64 55.59C55.25 57.46 63.41 58.82 65.62 59.16C68.34 59.5 72.42 59.84 76.16 59.33L75.99 56.27C79.5965 56.2654 81.7283 56.2641 85.85 56.27C82.4251 59.713 80.3917 61.6031 76.67 64.94C76.67 64.94 75.0323 64.7899 73.95 65.11C72.5876 65.5131 70.89 67.15 70.89 67.15H68.68C68.5602 67.5546 68.6728 67.7774 69.02 68.17H71.4C71.7706 68.3914 71.8725 68.6182 71.74 69.02L70.6868 70.6831C70.3269 71.2513 71.058 71.8754 71.5627 71.4308L71.7956 71.2256C72.2889 70.791 72.9899 71.434 72.5995 71.963L72.3991 72.2345C72.0578 72.697 72.6402 73.2749 73.1 72.93L73.61 72.59L73.7726 72.465C74.2833 72.0721 74.9756 72.6352 74.6949 73.2152C74.4003 73.8242 75.0743 74.2954 75.4869 73.7593C76.8293 72.0154 77.8104 69.9942 78.54 67.15C83.47 64.6 87.89 62.9 93.67 60.01C95.71 58.48 97.0796 57.0283 99.11 53.89C99.2766 53.4254 99.3042 53.1647 99.11 52.7C93.16 50.83 85.17 49.13 77.52 47.77H73.44C71.06 48.28 67.4637 49.8128 66.98 49.64C65.9495 48.7393 65.5762 48.0639 65.62 46.41L61.71 48.45L62.56 51.17L58.65 52.7Z" fill="url(#paint8_linear_705_4139)"/>
<path d="M66.3 42.84C66.47 47.6001 61.8422 52.87 58.65 52.87C57.12 52.19 54.91 48.45 54.23 46.41C54.23 44.8245 54.91 43.86 54.57 41.82C54.0033 38.42 55.6648 35.7 57.29 35.7C60.9497 35.2477 66.47 38.7601 66.3 42.84Z" fill="url(#paint9_linear_705_4139)"/>
<path d="M54.7004 36.5799C54.1564 37.3959 54.4737 38.3365 54.7004 38.7898C55.1212 38.0653 55.44 37.6569 56.2304 36.9199C57.2101 36.61 57.7704 36.647 58.7804 36.9199C59.0802 37.0009 60.8942 38.9717 62.1804 39.6398C62.9485 40.0388 64.2204 39.9798 64.2204 39.9798C64.2646 42.2405 64.6205 43.0016 65.2404 44.0598L65.7504 42.8698C65.9663 44.7412 65.7504 45.5898 65.2404 47.4598C65.7504 46.6098 67.672 48.0009 69.3204 45.4199C70.9687 42.8388 70.8269 38.2207 67.4504 34.0299C60.6774 32.6161 57.9338 33.2389 54.7004 36.5799Z" fill="url(#paint10_linear_705_4139)"/>
<g clip-path="url(#clip1_705_4139)">
<path d="M61.5401 108.8C61.5401 109.792 61.146 110.743 60.4446 111.445C59.7433 112.146 58.792 112.54 57.8001 112.54C56.8081 112.54 55.8569 112.146 55.1555 111.445C54.4541 110.743 54.0601 109.792 54.0601 108.8C54.0601 107.808 54.4541 106.857 55.1555 106.155C55.8569 105.454 56.8081 105.06 57.8001 105.06C58.792 105.06 59.7433 105.454 60.4446 106.155C61.146 106.857 61.5401 107.808 61.5401 108.8ZM59.6841 107.384C59.6507 107.35 59.6109 107.324 59.5672 107.306C59.5234 107.289 59.4766 107.28 59.4294 107.281C59.3823 107.282 59.3359 107.293 59.2929 107.312C59.2499 107.331 59.2112 107.359 59.1792 107.394L57.5556 109.463L56.5771 108.484C56.5106 108.422 56.4227 108.388 56.3319 108.39C56.241 108.391 56.1544 108.428 56.0901 108.492C56.0259 108.556 55.9891 108.643 55.9875 108.734C55.9859 108.825 56.0196 108.913 56.0815 108.979L57.3185 110.217C57.3519 110.25 57.3915 110.276 57.4352 110.294C57.4789 110.311 57.5257 110.32 57.5727 110.319C57.6198 110.318 57.6662 110.308 57.7092 110.289C57.7522 110.269 57.7909 110.242 57.823 110.207L59.6892 107.874C59.7528 107.808 59.788 107.72 59.7871 107.628C59.7862 107.536 59.7494 107.448 59.6846 107.384H59.6841Z" fill="url(#paint11_linear_705_4139)"/>
</g>
<g clip-path="url(#clip2_705_4139)">
<path d="M73.78 96.9001C73.78 97.6214 73.4934 98.3133 72.9833 98.8234C72.4732 99.3335 71.7814 99.6201 71.06 99.6201C70.3386 99.6201 69.6467 99.3335 69.1366 98.8234C68.6265 98.3133 68.34 97.6214 68.34 96.9001C68.34 96.1787 68.6265 95.4868 69.1366 94.9767C69.6467 94.4666 70.3386 94.1801 71.06 94.1801C71.7814 94.1801 72.4732 94.4666 72.9833 94.9767C73.4934 95.4868 73.78 96.1787 73.78 96.9001ZM72.4302 95.8699C72.4059 95.8457 72.377 95.8266 72.3451 95.8138C72.3133 95.8011 72.2793 95.7948 72.245 95.7955C72.2107 95.7962 72.1769 95.8038 72.1456 95.8179C72.1144 95.8319 72.0862 95.8522 72.063 95.8773L70.8821 97.3818L70.1705 96.6699C70.1222 96.6248 70.0583 96.6003 69.9922 96.6015C69.9261 96.6026 69.8631 96.6294 69.8164 96.6761C69.7697 96.7228 69.7429 96.7859 69.7417 96.8519C69.7406 96.918 69.7651 96.9819 69.8101 97.0303L70.7098 97.9303C70.734 97.9544 70.7629 97.9735 70.7946 97.9863C70.8264 97.9991 70.8604 98.0054 70.8946 98.0047C70.9289 98.0041 70.9626 97.9966 70.9939 97.9826C71.0252 97.9686 71.0533 97.9485 71.0766 97.9235L72.4339 96.2269C72.4802 96.1787 72.5057 96.1144 72.5051 96.0477C72.5045 95.9809 72.4777 95.9171 72.4305 95.8699H72.4302Z" fill="url(#paint12_linear_705_4139)"/>
</g>
<g clip-path="url(#clip3_705_4139)">
<path d="M73.78 120.36C73.78 121.082 73.4934 121.773 72.9833 122.283C72.4732 122.794 71.7814 123.08 71.06 123.08C70.3386 123.08 69.6467 122.794 69.1366 122.283C68.6265 121.773 68.34 121.082 68.34 120.36C68.34 119.639 68.6265 118.947 69.1366 118.437C69.6467 117.927 70.3386 117.64 71.06 117.64C71.7814 117.64 72.4732 117.927 72.9833 118.437C73.4934 118.947 73.78 119.639 73.78 120.36ZM72.4302 119.33C72.4059 119.306 72.377 119.287 72.3451 119.274C72.3133 119.261 72.2793 119.255 72.245 119.256C72.2107 119.256 72.1769 119.264 72.1456 119.278C72.1144 119.292 72.0862 119.312 72.063 119.337L70.8821 120.842L70.1705 120.13C70.1222 120.085 70.0583 120.06 69.9922 120.062C69.9261 120.063 69.8631 120.089 69.8164 120.136C69.7697 120.183 69.7429 120.246 69.7417 120.312C69.7406 120.378 69.7651 120.442 69.8101 120.49L70.7098 121.39C70.734 121.415 70.7629 121.434 70.7946 121.446C70.8264 121.459 70.8604 121.465 70.8946 121.465C70.9289 121.464 70.9626 121.457 70.9939 121.443C71.0252 121.429 71.0533 121.409 71.0766 121.384L72.4339 119.687C72.4802 119.639 72.5057 119.574 72.5051 119.508C72.5045 119.441 72.4777 119.377 72.4305 119.33H72.4302Z" fill="url(#paint13_linear_705_4139)"/>
</g>
<g clip-path="url(#clip4_705_4139)">
<path d="M62.56 133.62C62.56 134.251 62.3093 134.857 61.863 135.303C61.4166 135.749 60.8113 136 60.18 136C59.5488 136 58.9435 135.749 58.4971 135.303C58.0508 134.857 57.8 134.251 57.8 133.62C57.8 132.989 58.0508 132.383 58.4971 131.937C58.9435 131.491 59.5488 131.24 60.18 131.24C60.8113 131.24 61.4166 131.491 61.863 131.937C62.3093 132.383 62.56 132.989 62.56 133.62ZM61.379 132.719C61.3577 132.697 61.3324 132.681 61.3046 132.67C61.2767 132.658 61.2469 132.653 61.2169 132.654C61.1869 132.654 61.1574 132.661 61.13 132.673C61.1026 132.685 61.078 132.703 61.0577 132.725L60.0245 134.042L59.4018 133.419C59.3595 133.379 59.3035 133.358 59.2457 133.359C59.1879 133.36 59.1328 133.383 59.0919 133.424C59.051 133.465 59.0276 133.52 59.0266 133.578C59.0256 133.636 59.047 133.692 59.0864 133.734L59.8736 134.521C59.8948 134.543 59.9201 134.559 59.9479 134.57C59.9757 134.582 60.0054 134.587 60.0354 134.587C60.0653 134.586 60.0949 134.579 60.1222 134.567C60.1496 134.555 60.1742 134.537 60.1946 134.515L61.3822 133.031C61.4227 132.989 61.4451 132.933 61.4445 132.874C61.444 132.816 61.4206 132.76 61.3793 132.719H61.379Z" fill="url(#paint14_linear_705_4139)"/>
</g>
<g clip-path="url(#clip5_705_4139)">
<path d="M55.76 123.08C55.76 123.531 55.5809 123.963 55.2621 124.282C54.9433 124.601 54.5109 124.78 54.06 124.78C53.6091 124.78 53.1767 124.601 52.8579 124.282C52.5391 123.963 52.36 123.531 52.36 123.08C52.36 122.629 52.5391 122.197 52.8579 121.878C53.1767 121.559 53.6091 121.38 54.06 121.38C54.5109 121.38 54.9433 121.559 55.2621 121.878C55.5809 122.197 55.76 122.629 55.76 123.08ZM54.9164 122.436C54.9012 122.421 54.8831 122.409 54.8632 122.401C54.8433 122.393 54.822 122.389 54.8006 122.39C54.7792 122.39 54.7581 122.395 54.7385 122.404C54.719 122.413 54.7014 122.425 54.6869 122.441L53.9488 123.381L53.5041 122.936C53.4739 122.908 53.4339 122.893 53.3926 122.894C53.3513 122.894 53.3119 122.911 53.2827 122.94C53.2535 122.969 53.2368 123.009 53.2361 123.05C53.2354 123.091 53.2507 123.131 53.2788 123.162L53.8411 123.724C53.8563 123.739 53.8743 123.751 53.8941 123.759C53.914 123.767 53.9353 123.771 53.9567 123.771C53.9781 123.77 53.9992 123.765 54.0187 123.757C54.0382 123.748 54.0558 123.735 54.0704 123.72L54.9187 122.659C54.9476 122.629 54.9636 122.589 54.9632 122.547C54.9628 122.506 54.9461 122.466 54.9166 122.436H54.9164Z" fill="url(#paint15_linear_705_4139)"/>
</g>
<g clip-path="url(#clip6_705_4139)">
<path d="M74.12 106.76C74.12 107.121 73.9767 107.467 73.7217 107.722C73.4666 107.977 73.1207 108.12 72.76 108.12C72.3993 108.12 72.0534 107.977 71.7984 107.722C71.5433 107.467 71.4 107.121 71.4 106.76C71.4 106.399 71.5433 106.053 71.7984 105.798C72.0534 105.543 72.3993 105.4 72.76 105.4C73.1207 105.4 73.4666 105.543 73.7217 105.798C73.9767 106.053 74.12 106.399 74.12 106.76ZM73.4451 106.245C73.433 106.233 73.4185 106.223 73.4026 106.217C73.3867 106.211 73.3697 106.207 73.3525 106.208C73.3354 106.208 73.3185 106.212 73.3029 106.219C73.2872 106.226 73.2732 106.236 73.2615 106.249L72.6711 107.001L72.3153 106.645C72.2911 106.622 72.2592 106.61 72.2261 106.611C72.1931 106.611 72.1616 106.625 72.1382 106.648C72.1149 106.671 72.1015 106.703 72.1009 106.736C72.1003 106.769 72.1126 106.801 72.1351 106.825L72.5849 107.275C72.597 107.287 72.6115 107.297 72.6274 107.303C72.6432 107.31 72.6602 107.313 72.6774 107.312C72.6945 107.312 72.7114 107.308 72.727 107.301C72.7426 107.294 72.7567 107.284 72.7684 107.272L73.447 106.423C73.4701 106.399 73.4829 106.367 73.4826 106.334C73.4823 106.3 73.4689 106.269 73.4453 106.245H73.4451Z" fill="url(#paint16_linear_705_4139)"/>
</g>
<g clip-path="url(#clip7_705_4139)">
<path d="M127.84 38.4201C127.84 39.412 127.446 40.3632 126.745 41.0646C126.043 41.766 125.092 42.1601 124.1 42.1601C123.108 42.1601 122.157 41.766 121.455 41.0646C120.754 40.3632 120.36 39.412 120.36 38.4201C120.36 37.4281 120.754 36.4769 121.455 35.7755C122.157 35.0741 123.108 34.6801 124.1 34.6801C125.092 34.6801 126.043 35.0741 126.745 35.7755C127.446 36.4769 127.84 37.4281 127.84 38.4201ZM125.984 37.0035C125.951 36.9703 125.911 36.9441 125.867 36.9265C125.823 36.9089 125.777 36.9004 125.729 36.9013C125.682 36.9023 125.636 36.9128 125.593 36.9321C125.55 36.9514 125.511 36.9792 125.479 37.0138L123.855 39.0825L122.877 38.1036C122.811 38.0416 122.723 38.0079 122.632 38.0095C122.541 38.0111 122.454 38.0479 122.39 38.1121C122.326 38.1764 122.289 38.2631 122.287 38.3539C122.286 38.4447 122.32 38.5326 122.381 38.5991L123.618 39.8366C123.652 39.8698 123.691 39.8961 123.735 39.9136C123.779 39.9312 123.826 39.9399 123.873 39.939C123.92 39.9381 123.966 39.9278 124.009 39.9086C124.052 39.8894 124.091 39.8617 124.123 39.8272L125.989 37.4944C126.053 37.4283 126.088 37.3398 126.087 37.248C126.086 37.1562 126.049 37.0685 125.984 37.0035H125.984Z" fill="url(#paint17_linear_705_4139)"/>
</g>
<g clip-path="url(#clip8_705_4139)">
<path d="M140.08 26.52C140.08 27.2414 139.793 27.9333 139.283 28.4434C138.773 28.9535 138.081 29.24 137.36 29.24C136.639 29.24 135.947 28.9535 135.437 28.4434C134.927 27.9333 134.64 27.2414 134.64 26.52C134.64 25.7987 134.927 25.1068 135.437 24.5967C135.947 24.0866 136.639 23.8 137.36 23.8C138.081 23.8 138.773 24.0866 139.283 24.5967C139.793 25.1068 140.08 25.7987 140.08 26.52ZM138.73 25.4898C138.706 25.4656 138.677 25.4466 138.645 25.4338C138.613 25.4211 138.579 25.4148 138.545 25.4155C138.511 25.4162 138.477 25.4238 138.446 25.4379C138.414 25.4519 138.386 25.4722 138.363 25.4973L137.182 27.0018L136.471 26.2899C136.422 26.2448 136.358 26.2203 136.292 26.2215C136.226 26.2226 136.163 26.2494 136.116 26.2961C136.07 26.3428 136.043 26.4059 136.042 26.4719C136.041 26.538 136.065 26.6019 136.11 26.6503L137.01 27.5502C137.034 27.5744 137.063 27.5935 137.095 27.6063C137.126 27.6191 137.16 27.6254 137.195 27.6247C137.229 27.6241 137.263 27.6166 137.294 27.6026C137.325 27.5886 137.353 27.5685 137.377 27.5434L138.734 25.8468C138.78 25.7987 138.806 25.7344 138.805 25.6677C138.805 25.6009 138.778 25.5371 138.731 25.4898H138.73Z" fill="url(#paint18_linear_705_4139)"/>
</g>
<g clip-path="url(#clip9_705_4139)">
<path d="M140.08 49.9801C140.08 50.7015 139.793 51.3934 139.283 51.9035C138.773 52.4136 138.081 52.7001 137.36 52.7001C136.639 52.7001 135.947 52.4136 135.437 51.9035C134.927 51.3934 134.64 50.7015 134.64 49.9801C134.64 49.2587 134.927 48.5669 135.437 48.0568C135.947 47.5467 136.639 47.2601 137.36 47.2601C138.081 47.2601 138.773 47.5467 139.283 48.0568C139.793 48.5669 140.08 49.2587 140.08 49.9801ZM138.73 48.9499C138.706 48.9257 138.677 48.9067 138.645 48.8939C138.613 48.8811 138.579 48.8749 138.545 48.8756C138.511 48.8763 138.477 48.8839 138.446 48.898C138.414 48.912 138.386 48.9322 138.363 48.9574L137.182 50.4619L136.471 49.75C136.422 49.7049 136.358 49.6804 136.292 49.6816C136.226 49.6827 136.163 49.7095 136.116 49.7562C136.07 49.8029 136.043 49.866 136.042 49.932C136.041 49.9981 136.065 50.062 136.11 50.1104L137.01 51.0103C137.034 51.0345 137.063 51.0536 137.095 51.0664C137.126 51.0792 137.16 51.0854 137.195 51.0848C137.229 51.0842 137.263 51.0767 137.294 51.0627C137.325 51.0487 137.353 51.0286 137.377 51.0035L138.734 49.3069C138.78 49.2588 138.806 49.1945 138.805 49.1277C138.805 49.061 138.778 48.9972 138.731 48.9499H138.73Z" fill="url(#paint19_linear_705_4139)"/>
</g>
<g clip-path="url(#clip10_705_4139)">
<path d="M128.86 63.2401C128.86 63.8713 128.609 64.4767 128.163 64.923C127.717 65.3694 127.111 65.6201 126.48 65.6201C125.849 65.6201 125.243 65.3694 124.797 64.923C124.351 64.4767 124.1 63.8713 124.1 63.2401C124.1 62.6089 124.351 62.0035 124.797 61.5572C125.243 61.1109 125.849 60.8601 126.48 60.8601C127.111 60.8601 127.717 61.1109 128.163 61.5572C128.609 62.0035 128.86 62.6089 128.86 63.2401ZM127.679 62.3387C127.658 62.3175 127.632 62.3008 127.605 62.2897C127.577 62.2785 127.547 62.273 127.517 62.2737C127.487 62.2743 127.457 62.2809 127.43 62.2932C127.403 62.3055 127.378 62.3232 127.358 62.3452L126.324 63.6617L125.702 63.0387C125.659 62.9993 125.603 62.9778 125.546 62.9789C125.488 62.9799 125.433 63.0033 125.392 63.0442C125.351 63.085 125.328 63.1402 125.327 63.198C125.325 63.2558 125.347 63.3118 125.386 63.354L126.174 64.1415C126.195 64.1627 126.22 64.1794 126.248 64.1906C126.276 64.2018 126.305 64.2073 126.335 64.2067C126.365 64.2061 126.395 64.1996 126.422 64.1873C126.45 64.1751 126.474 64.1575 126.495 64.1356L127.682 62.6511C127.723 62.609 127.745 62.5527 127.744 62.4943C127.744 62.4359 127.72 62.38 127.679 62.3387H127.679Z" fill="url(#paint20_linear_705_4139)"/>
</g>
<g clip-path="url(#clip11_705_4139)">
<path d="M122.06 52.7C122.06 53.1509 121.881 53.5833 121.562 53.9021C121.243 54.2209 120.811 54.4 120.36 54.4C119.909 54.4 119.477 54.2209 119.158 53.9021C118.839 53.5833 118.66 53.1509 118.66 52.7C118.66 52.2491 118.839 51.8167 119.158 51.4979C119.477 51.1791 119.909 51 120.36 51C120.811 51 121.243 51.1791 121.562 51.4979C121.881 51.8167 122.06 52.2491 122.06 52.7ZM121.216 52.0561C121.201 52.041 121.183 52.0291 121.163 52.0211C121.143 52.0131 121.122 52.0092 121.101 52.0097C121.079 52.0101 121.058 52.0149 121.039 52.0236C121.019 52.0324 121.001 52.0451 120.987 52.0608L120.249 53.0011L119.804 52.5561C119.774 52.528 119.734 52.5127 119.693 52.5134C119.651 52.5141 119.612 52.5308 119.583 52.56C119.554 52.5892 119.537 52.6286 119.536 52.6699C119.535 52.7112 119.551 52.7512 119.579 52.7814L120.141 53.3439C120.156 53.359 120.174 53.3709 120.194 53.3789C120.214 53.3869 120.235 53.3908 120.257 53.3904C120.278 53.39 120.299 53.3853 120.319 53.3766C120.338 53.3679 120.356 53.3553 120.37 53.3396L121.219 52.2792C121.248 52.2492 121.264 52.209 121.263 52.1673C121.263 52.1255 121.246 52.0856 121.217 52.0561H121.216Z" fill="url(#paint21_linear_705_4139)"/>
</g>
<g clip-path="url(#clip12_705_4139)">
<path d="M140.42 36.38C140.42 36.7407 140.277 37.0866 140.022 37.3417C139.767 37.5967 139.421 37.74 139.06 37.74C138.699 37.74 138.353 37.5967 138.098 37.3417C137.843 37.0866 137.7 36.7407 137.7 36.38C137.7 36.0193 137.843 35.6734 138.098 35.4184C138.353 35.1633 138.699 35.02 139.06 35.02C139.421 35.02 139.767 35.1633 140.022 35.4184C140.277 35.6734 140.42 36.0193 140.42 36.38ZM139.745 35.8649C139.733 35.8528 139.718 35.8433 139.703 35.8369C139.687 35.8305 139.67 35.8274 139.652 35.8278C139.635 35.8281 139.618 35.8319 139.603 35.8389C139.587 35.846 139.573 35.8561 139.561 35.8687L138.971 36.6209L138.615 36.2649C138.591 36.2424 138.559 36.2301 138.526 36.2307C138.493 36.2313 138.462 36.2447 138.438 36.2681C138.415 36.2914 138.401 36.3229 138.401 36.356C138.4 36.389 138.413 36.421 138.435 36.4451L138.885 36.8951C138.897 36.9072 138.911 36.9167 138.927 36.9231C138.943 36.9295 138.96 36.9327 138.977 36.9324C138.994 36.932 139.011 36.9283 139.027 36.9213C139.043 36.9143 139.057 36.9043 139.068 36.8917L139.747 36.0434C139.77 36.0194 139.783 35.9872 139.783 35.9538C139.782 35.9204 139.769 35.8885 139.745 35.8649H139.745Z" fill="url(#paint22_linear_705_4139)"/>
</g>
<defs>
<linearGradient id="paint0_linear_705_4139" x1="0" y1="67.7917" x2="181.237" y2="67.7917" gradientUnits="userSpaceOnUse">
<stop stop-color="#37ECBA"/>
<stop offset="1" stop-color="#72AFD3"/>
</linearGradient>
<linearGradient id="paint1_linear_705_4139" x1="25.84" y1="81.09" x2="36.55" y2="81.09" gradientUnits="userSpaceOnUse">
<stop stop-color="#667EEA"/>
<stop offset="1" stop-color="#764BA2"/>
</linearGradient>
<linearGradient id="paint2_linear_705_4139" x1="3.42139" y1="69.2404" x2="194.31" y2="69.2404" gradientUnits="userSpaceOnUse">
<stop stop-color="#667EEA"/>
<stop offset="1" stop-color="#764BA2"/>
</linearGradient>
<linearGradient id="paint3_linear_705_4139" x1="3.48682" y1="70.5429" x2="146.2" y2="70.5429" gradientUnits="userSpaceOnUse">
<stop stop-color="#764BA2"/>
<stop offset="1" stop-color="#667EEA"/>
</linearGradient>
<linearGradient id="paint4_linear_705_4139" x1="42.5348" y1="82.8451" x2="73.6205" y2="82.8451" gradientUnits="userSpaceOnUse">
<stop stop-color="#667EEA"/>
<stop offset="1" stop-color="#764BA2"/>
</linearGradient>
<linearGradient id="paint5_linear_705_4139" x1="24.48" y1="54.4" x2="26.01" y2="54.4" gradientUnits="userSpaceOnUse">
<stop stop-color="#D5DEE7"/>
<stop offset="0.5" stop-color="#E8EBF2"/>
<stop offset="1" stop-color="#E2E7ED"/>
</linearGradient>
<linearGradient id="paint6_linear_705_4139" x1="24.48" y1="54.4" x2="25.67" y2="54.4" gradientUnits="userSpaceOnUse">
<stop stop-color="#29323C"/>
<stop offset="1" stop-color="#485563"/>
</linearGradient>
<linearGradient id="paint7_linear_705_4139" x1="61.2973" y1="74.8451" x2="75.2784" y2="70.5706" gradientUnits="userSpaceOnUse">
<stop stop-color="#37ECBA"/>
<stop offset="1" stop-color="#72AFD3"/>
</linearGradient>
<linearGradient id="paint8_linear_705_4139" x1="49.64" y1="61.285" x2="99.2455" y2="61.285" gradientUnits="userSpaceOnUse">
<stop stop-color="#E6B980"/>
<stop offset="1" stop-color="#EACDA3"/>
</linearGradient>
<linearGradient id="paint9_linear_705_4139" x1="54.23" y1="44.2653" x2="66.3045" y2="44.2653" gradientUnits="userSpaceOnUse">
<stop stop-color="#E6B980"/>
<stop offset="1" stop-color="#EACDA3"/>
</linearGradient>
<linearGradient id="paint10_linear_705_4139" x1="54.4" y1="40.3899" x2="70.3467" y2="40.3899" gradientUnits="userSpaceOnUse">
<stop stop-color="#29323C"/>
<stop offset="1" stop-color="#485563"/>
</linearGradient>
<linearGradient id="paint11_linear_705_4139" x1="54.0601" y1="108.8" x2="61.5401" y2="108.8" gradientUnits="userSpaceOnUse">
<stop stop-color="#37ECBA"/>
<stop offset="1" stop-color="#72AFD3"/>
</linearGradient>
<linearGradient id="paint12_linear_705_4139" x1="68.34" y1="96.9001" x2="73.78" y2="96.9001" gradientUnits="userSpaceOnUse">
<stop stop-color="#37ECBA"/>
<stop offset="1" stop-color="#72AFD3"/>
</linearGradient>
<linearGradient id="paint13_linear_705_4139" x1="68.34" y1="120.36" x2="73.78" y2="120.36" gradientUnits="userSpaceOnUse">
<stop stop-color="#37ECBA"/>
<stop offset="1" stop-color="#72AFD3"/>
</linearGradient>
<linearGradient id="paint14_linear_705_4139" x1="57.8" y1="133.62" x2="62.56" y2="133.62" gradientUnits="userSpaceOnUse">
<stop stop-color="#37ECBA"/>
<stop offset="1" stop-color="#72AFD3"/>
</linearGradient>
<linearGradient id="paint15_linear_705_4139" x1="52.36" y1="123.08" x2="55.76" y2="123.08" gradientUnits="userSpaceOnUse">
<stop stop-color="#37ECBA"/>
<stop offset="1" stop-color="#72AFD3"/>
</linearGradient>
<linearGradient id="paint16_linear_705_4139" x1="71.4" y1="106.76" x2="74.12" y2="106.76" gradientUnits="userSpaceOnUse">
<stop stop-color="#37ECBA"/>
<stop offset="1" stop-color="#72AFD3"/>
</linearGradient>
<linearGradient id="paint17_linear_705_4139" x1="120.36" y1="38.4201" x2="127.84" y2="38.4201" gradientUnits="userSpaceOnUse">
<stop stop-color="#37ECBA"/>
<stop offset="1" stop-color="#72AFD3"/>
</linearGradient>
<linearGradient id="paint18_linear_705_4139" x1="134.64" y1="26.52" x2="140.08" y2="26.52" gradientUnits="userSpaceOnUse">
<stop stop-color="#37ECBA"/>
<stop offset="1" stop-color="#72AFD3"/>
</linearGradient>
<linearGradient id="paint19_linear_705_4139" x1="134.64" y1="49.9801" x2="140.08" y2="49.9801" gradientUnits="userSpaceOnUse">
<stop stop-color="#37ECBA"/>
<stop offset="1" stop-color="#72AFD3"/>
</linearGradient>
<linearGradient id="paint20_linear_705_4139" x1="124.1" y1="63.2401" x2="128.86" y2="63.2401" gradientUnits="userSpaceOnUse">
<stop stop-color="#37ECBA"/>
<stop offset="1" stop-color="#72AFD3"/>
</linearGradient>
<linearGradient id="paint21_linear_705_4139" x1="118.66" y1="52.7" x2="122.06" y2="52.7" gradientUnits="userSpaceOnUse">
<stop stop-color="#37ECBA"/>
<stop offset="1" stop-color="#72AFD3"/>
</linearGradient>
<linearGradient id="paint22_linear_705_4139" x1="137.7" y1="36.38" x2="140.42" y2="36.38" gradientUnits="userSpaceOnUse">
<stop stop-color="#37ECBA"/>
<stop offset="1" stop-color="#72AFD3"/>
</linearGradient>
<clipPath id="clip0_705_4139">
<rect width="14.62" height="14.62" fill="white" transform="translate(59.16 67.8545) rotate(-17)"/>
</clipPath>
<clipPath id="clip1_705_4139">
<rect width="7.48" height="7.48" fill="white" transform="translate(54.0601 105.06)"/>
</clipPath>
<clipPath id="clip2_705_4139">
<rect width="5.44" height="5.44" fill="white" transform="translate(68.34 94.1801)"/>
</clipPath>
<clipPath id="clip3_705_4139">
<rect width="5.44" height="5.44" fill="white" transform="translate(68.34 117.64)"/>
</clipPath>
<clipPath id="clip4_705_4139">
<rect width="4.76" height="4.76" fill="white" transform="translate(57.8 131.24)"/>
</clipPath>
<clipPath id="clip5_705_4139">
<rect width="3.4" height="3.4" fill="white" transform="translate(52.36 121.38)"/>
</clipPath>
<clipPath id="clip6_705_4139">
<rect width="2.72" height="2.72" fill="white" transform="translate(71.4 105.4)"/>
</clipPath>
<clipPath id="clip7_705_4139">
<rect width="7.48" height="7.48" fill="white" transform="translate(120.36 34.6801)"/>
</clipPath>
<clipPath id="clip8_705_4139">
<rect width="5.44" height="5.44" fill="white" transform="translate(134.64 23.8)"/>
</clipPath>
<clipPath id="clip9_705_4139">
<rect width="5.44" height="5.44" fill="white" transform="translate(134.64 47.2601)"/>
</clipPath>
<clipPath id="clip10_705_4139">
<rect width="4.76" height="4.76" fill="white" transform="translate(124.1 60.8601)"/>
</clipPath>
<clipPath id="clip11_705_4139">
<rect width="3.4" height="3.4" fill="white" transform="translate(118.66 51)"/>
</clipPath>
<clipPath id="clip12_705_4139">
<rect width="2.72" height="2.72" fill="white" transform="translate(137.7 35.02)"/>
</clipPath>
</defs>
</svg>
