<svg width="306" height="160" viewBox="0 0 306 160" fill="none" xmlns="http://www.w3.org/2000/svg">
<path d="M0 4C0 1.79086 1.79086 0 4 0H302C304.209 0 306 1.79086 306 4V160H0V4Z" fill="url(#paint0_linear_621_4017)"/>
<mask id="mask0_621_4017" style="mask-type:alpha" maskUnits="userSpaceOnUse" x="0" y="0" width="306" height="160">
<path d="M0 4C0 1.79086 1.79086 0 4 0H302C304.209 0 306 1.79086 306 4V160H0V4Z" fill="url(#paint1_linear_621_4017)"/>
</mask>
<g mask="url(#mask0_621_4017)">
<path d="M247.22 6.53638C247.22 6.53638 222.58 -7.68983 204.797 23.1108C199.355 32.5358 195.831 41.3429 193.651 49.5296C189.162 51.0448 160.692 61.2195 169.186 92.8995L194.061 86.2343C206.726 126.893 258.077 144.221 258.077 144.221C258.077 144.221 247.407 162.701 272.048 176.927L280.114 148.73L300.5 127.646C275.859 113.42 265.19 131.9 265.19 131.9C265.19 131.9 232.73 106.178 248.074 64.5237L265.445 74.5532C272.558 62.2329 263.827 51.6067 257.243 46.0807L264.747 33.0829C278.974 8.44233 276.37 -1.27435 270.21 -4.8309C264.05 -8.38745 250.777 0.376256 247.22 6.53638ZM246.267 22.4132C244.311 25.8013 239.938 26.9729 236.55 25.0168C233.162 23.0607 231.991 18.6882 233.947 15.3001C235.903 11.912 240.275 10.7404 243.663 12.6965C247.052 14.6526 248.223 19.0251 246.267 22.4132Z" fill="url(#paint2_linear_621_4017)"/>
</g>
<defs>
<linearGradient id="paint0_linear_621_4017" x1="0" y1="80" x2="306" y2="80" gradientUnits="userSpaceOnUse">
<stop stop-color="#667EEA"/>
<stop offset="1" stop-color="#764BA2"/>
</linearGradient>
<linearGradient id="paint1_linear_621_4017" x1="0" y1="80" x2="306" y2="80" gradientUnits="userSpaceOnUse">
<stop stop-color="#667EEA"/>
<stop offset="1" stop-color="#764BA2"/>
</linearGradient>
<linearGradient id="paint2_linear_621_4017" x1="210.438" y1="141.357" x2="288.682" y2="5.83385" gradientUnits="userSpaceOnUse">
<stop stop-color="#667EEA"/>
<stop offset="1" stop-color="#764BA2"/>
</linearGradient>
</defs>
</svg>
