<svg width="126" height="39" viewBox="0 0 126 39" fill="none" xmlns="http://www.w3.org/2000/svg">
<g clip-path="url(#clip0_1323_12608)">
<path d="M18.7392 8.1247C18.7392 8.1247 14.6978 5.79137 11.7811 10.8432C10.8886 12.389 10.3106 13.8336 9.95294 15.1763C9.21671 15.4248 4.5472 17.0936 5.94033 22.2897L10.0202 21.1965C12.0975 27.8652 20.5199 30.7072 20.5199 30.7072C20.5199 30.7072 18.7699 33.7383 22.8113 36.0716L24.1343 31.4468L27.478 27.9887C23.4365 25.6554 21.6865 28.6864 21.6865 28.6864C21.6865 28.6864 16.3627 24.4676 18.8792 17.6356L21.7284 19.2806C22.8951 17.2598 21.463 15.517 20.3832 14.6106L21.614 12.4788C23.9473 8.43731 23.5203 6.84361 22.5099 6.26028C21.4996 5.67695 19.3225 7.11434 18.7392 8.1247ZM18.5829 10.7288C18.2621 11.2845 17.5449 11.4766 16.9892 11.1558C16.4335 10.835 16.2413 10.1178 16.5622 9.5621C16.883 9.0064 17.6002 8.81423 18.1559 9.13507C18.7116 9.4559 18.9037 10.1731 18.5829 10.7288Z" fill="white"/>
</g>
<path d="M37.2642 26.249V11.7036H40.3395V23.7135H46.5753V26.249H37.2642ZM55.5508 21.6041V15.3399H58.5763V26.249H55.6715V24.2675H55.5579C55.3117 24.9067 54.9021 25.4204 54.3292 25.8087C53.761 26.1969 53.0674 26.3911 52.2482 26.3911C51.5191 26.3911 50.8775 26.2253 50.3235 25.8939C49.7695 25.5625 49.3363 25.0914 49.0238 24.4806C48.716 23.8698 48.5598 23.1382 48.555 22.286V15.3399H51.5806V21.7462C51.5853 22.3901 51.7582 22.8991 52.0991 23.2732C52.44 23.6472 52.8969 23.8343 53.4698 23.8343C53.8344 23.8343 54.1753 23.7514 54.4925 23.5857C54.8098 23.4152 55.0655 23.1643 55.2596 22.8328C55.4585 22.5014 55.5555 22.0918 55.5508 21.6041ZM60.9964 26.249V15.3399H63.88V17.2646H64.0078C64.2351 16.6254 64.6139 16.1212 65.1442 15.7519C65.6745 15.3825 66.3089 15.1979 67.0476 15.1979C67.7957 15.1979 68.4325 15.3849 68.9581 15.759C69.4837 16.1283 69.834 16.6302 70.0092 17.2646H70.1229C70.3454 16.6396 70.7479 16.1401 71.3303 15.7661C71.9174 15.3873 72.611 15.1979 73.4112 15.1979C74.4292 15.1979 75.2554 15.5222 75.8899 16.1709C76.5291 16.8148 76.8487 17.7287 76.8487 18.9124V26.249H73.8303V19.509C73.8303 18.9029 73.6693 18.4484 73.3473 18.1453C73.0253 17.8423 72.6229 17.6908 72.1399 17.6908C71.5907 17.6908 71.1622 17.866 70.8544 18.2164C70.5466 18.562 70.3928 19.0189 70.3928 19.5871V26.249H67.4595V19.445C67.4595 18.91 67.3056 18.4839 66.9979 18.1666C66.6948 17.8494 66.2947 17.6908 65.7976 17.6908C65.4614 17.6908 65.1584 17.776 64.8885 17.9465C64.6233 18.1122 64.4126 18.3466 64.2564 18.6496C64.1001 18.9479 64.022 19.2983 64.022 19.7007V26.249H60.9964ZM79.2955 26.249V11.7036H82.321V17.1723H82.4134C82.5459 16.8788 82.7377 16.5805 82.9886 16.2774C83.2443 15.9697 83.5758 15.714 83.983 15.5104C84.3949 15.3021 84.9063 15.1979 85.517 15.1979C86.3125 15.1979 87.0464 15.4062 87.7188 15.8229C88.3911 16.2348 88.9285 16.8575 89.331 17.6908C89.7334 18.5194 89.9347 19.5587 89.9347 20.8087C89.9347 22.0255 89.7382 23.053 89.3452 23.8911C88.9569 24.7244 88.4266 25.3565 87.7543 25.7874C87.0866 26.2135 86.3385 26.4266 85.5099 26.4266C84.9228 26.4266 84.4233 26.3295 84.0114 26.1354C83.6042 25.9413 83.2704 25.6974 83.0099 25.4039C82.7495 25.1056 82.5507 24.8049 82.4134 24.5019H82.2784V26.249H79.2955ZM82.2571 20.7945C82.2571 21.4432 82.3471 22.009 82.527 22.4919C82.7069 22.9749 82.9673 23.3513 83.3082 23.6212C83.6491 23.8863 84.0634 24.0189 84.5511 24.0189C85.0436 24.0189 85.4602 23.884 85.8011 23.6141C86.142 23.3395 86.4001 22.9607 86.5753 22.4777C86.7552 21.99 86.8452 21.4289 86.8452 20.7945C86.8452 20.1647 86.7576 19.6108 86.5824 19.1325C86.4072 18.6543 86.1491 18.2803 85.8082 18.0104C85.4673 17.7405 85.0483 17.6056 84.5511 17.6056C84.0587 17.6056 83.642 17.7358 83.3011 17.9962C82.965 18.2566 82.7069 18.6259 82.527 19.1041C82.3471 19.5824 82.2571 20.1458 82.2571 20.7945ZM95.0643 26.455C94.3683 26.455 93.748 26.3343 93.2035 26.0928C92.659 25.8466 92.2281 25.4843 91.9109 25.0061C91.5984 24.5232 91.4421 23.9218 91.4421 23.2021C91.4421 22.5961 91.5534 22.0871 91.7759 21.6752C91.9985 21.2632 92.3015 20.9318 92.685 20.6808C93.0685 20.4299 93.5041 20.2405 93.9918 20.1127C94.4843 19.9848 95.0004 19.8949 95.5401 19.8428C96.1746 19.7765 96.686 19.7149 97.0742 19.6581C97.4625 19.5966 97.7442 19.5066 97.9194 19.3882C98.0946 19.2699 98.1822 19.0947 98.1822 18.8627V18.82C98.1822 18.3702 98.0401 18.0222 97.756 17.776C97.4767 17.5298 97.079 17.4067 96.5629 17.4067C96.0183 17.4067 95.5851 17.5274 95.2631 17.7689C94.9412 18.0057 94.7281 18.3039 94.6239 18.6638L91.8256 18.4365C91.9677 17.7736 92.247 17.2007 92.6637 16.7178C93.0804 16.2301 93.6178 15.856 94.2759 15.5956C94.9388 15.3305 95.7058 15.1979 96.5771 15.1979C97.1831 15.1979 97.7631 15.2689 98.3171 15.411C98.8758 15.553 99.3706 15.7732 99.8015 16.0715C100.237 16.3698 100.58 16.7533 100.831 17.222C101.082 17.686 101.208 18.2424 101.208 18.8911V26.249H98.3384V24.7362H98.2532C98.078 25.0771 97.8436 25.3778 97.5501 25.6382C97.2565 25.8939 96.9038 26.0951 96.4918 26.2419C96.0799 26.384 95.604 26.455 95.0643 26.455ZM95.9308 24.3669C96.3758 24.3669 96.7688 24.2793 97.1097 24.1041C97.4506 23.9242 97.7182 23.6827 97.9123 23.3797C98.1064 23.0767 98.2035 22.7334 98.2035 22.3499V21.1922C98.1088 21.2538 97.9786 21.3106 97.8129 21.3627C97.6519 21.41 97.4696 21.455 97.266 21.4976C97.0624 21.5355 96.8588 21.571 96.6552 21.6041C96.4516 21.6325 96.2669 21.6586 96.1012 21.6823C95.7461 21.7343 95.436 21.8172 95.1708 21.9308C94.9057 22.0445 94.6997 22.1984 94.5529 22.3925C94.4061 22.5819 94.3327 22.8186 94.3327 23.1027C94.3327 23.5146 94.4819 23.8295 94.7802 24.0473C95.0832 24.2604 95.4667 24.3669 95.9308 24.3669ZM105.324 26.4337C104.855 26.4337 104.452 26.268 104.116 25.9365C103.785 25.6003 103.619 25.1979 103.619 24.7291C103.619 24.2651 103.785 23.8674 104.116 23.536C104.452 23.2045 104.855 23.0388 105.324 23.0388C105.778 23.0388 106.176 23.2045 106.517 23.536C106.858 23.8674 107.028 24.2651 107.028 24.7291C107.028 25.0416 106.948 25.3281 106.787 25.5885C106.63 25.8442 106.424 26.0502 106.169 26.2064C105.913 26.3579 105.631 26.4337 105.324 26.4337ZM112.623 26.455C111.927 26.455 111.307 26.3343 110.762 26.0928C110.218 25.8466 109.787 25.4843 109.469 25.0061C109.157 24.5232 109.001 23.9218 109.001 23.2021C109.001 22.5961 109.112 22.0871 109.335 21.6752C109.557 21.2632 109.86 20.9318 110.244 20.6808C110.627 20.4299 111.063 20.2405 111.55 20.1127C112.043 19.9848 112.559 19.8949 113.099 19.8428C113.733 19.7765 114.245 19.7149 114.633 19.6581C115.021 19.5966 115.303 19.5066 115.478 19.3882C115.653 19.2699 115.741 19.0947 115.741 18.8627V18.82C115.741 18.3702 115.599 18.0222 115.315 17.776C115.035 17.5298 114.638 17.4067 114.121 17.4067C113.577 17.4067 113.144 17.5274 112.822 17.7689C112.5 18.0057 112.287 18.3039 112.183 18.6638L109.384 18.4365C109.526 17.7736 109.806 17.2007 110.222 16.7178C110.639 16.2301 111.176 15.856 111.835 15.5956C112.497 15.3305 113.264 15.1979 114.136 15.1979C114.742 15.1979 115.322 15.2689 115.876 15.411C116.434 15.553 116.929 15.7732 117.36 16.0715C117.796 16.3698 118.139 16.7533 118.39 17.222C118.641 17.686 118.766 18.2424 118.766 18.8911V26.249H115.897V24.7362H115.812C115.637 25.0771 115.402 25.3778 115.109 25.6382C114.815 25.8939 114.462 26.0951 114.05 26.2419C113.638 26.384 113.163 26.455 112.623 26.455ZM113.489 24.3669C113.934 24.3669 114.327 24.2793 114.668 24.1041C115.009 23.9242 115.277 23.6827 115.471 23.3797C115.665 23.0767 115.762 22.7334 115.762 22.3499V21.1922C115.667 21.2538 115.537 21.3106 115.371 21.3627C115.21 21.41 115.028 21.455 114.825 21.4976C114.621 21.5355 114.417 21.571 114.214 21.6041C114.01 21.6325 113.826 21.6586 113.66 21.6823C113.305 21.7343 112.995 21.8172 112.729 21.9308C112.464 22.0445 112.258 22.1984 112.112 22.3925C111.965 22.5819 111.891 22.8186 111.891 23.1027C111.891 23.5146 112.04 23.8295 112.339 24.0473C112.642 24.2604 113.025 24.3669 113.489 24.3669ZM121.114 26.249V15.3399H124.139V26.249H121.114ZM122.634 13.9337C122.184 13.9337 121.798 13.7845 121.476 13.4862C121.159 13.1832 121 12.821 121 12.3996C121 11.9829 121.159 11.6254 121.476 11.3271C121.798 11.0241 122.184 10.8726 122.634 10.8726C123.083 10.8726 123.467 11.0241 123.784 11.3271C124.106 11.6254 124.267 11.9829 124.267 12.3996C124.267 12.821 124.106 13.1832 123.784 13.4862C123.467 13.7845 123.083 13.9337 122.634 13.9337Z" fill="white"/>
<defs>
<clipPath id="clip0_1323_12608">
<rect width="28" height="28" fill="white" transform="translate(0 24.249) rotate(-60)"/>
</clipPath>
</defs>
</svg>
