<svg width="17" height="17" viewBox="0 0 17 17" fill="none" xmlns="http://www.w3.org/2000/svg">
<g clip-path="url(#clip0_73_666)">
<path fill-rule="evenodd" clip-rule="evenodd" d="M14.875 4.78125V14.875C14.875 15.4386 14.6511 15.9791 14.2526 16.3776C13.8541 16.7761 13.3136 17 12.75 17H11.6875V15.9375H12.75C13.0318 15.9375 13.302 15.8256 13.5013 15.6263C13.7006 15.427 13.8125 15.1568 13.8125 14.875V4.78125H11.6875C11.2648 4.78125 10.8594 4.61334 10.5605 4.31445C10.2617 4.01557 10.0938 3.61019 10.0938 3.1875V1.0625H4.25C3.96821 1.0625 3.69796 1.17444 3.4987 1.3737C3.29944 1.57296 3.1875 1.84321 3.1875 2.125V11.6875H2.125V2.125C2.125 1.56141 2.34888 1.02091 2.7474 0.622398C3.14591 0.223883 3.68641 0 4.25 0L10.0938 0L14.875 4.78125ZM3.73681 15.7686C3.74289 15.936 3.78394 16.1003 3.85732 16.2509C3.9307 16.4015 4.03478 16.535 4.16288 16.643C4.301 16.7577 4.46994 16.847 4.67075 16.9108C4.87262 16.9756 5.10744 17.0074 5.37731 17.0074C5.73644 17.0074 6.04031 16.9511 6.29 16.8396C6.54075 16.728 6.732 16.5718 6.86269 16.3721C6.9955 16.1713 7.06137 15.9386 7.06137 15.6751C7.06137 15.4371 7.01356 15.2394 6.919 15.0801C6.82175 14.9209 6.68434 14.7901 6.52056 14.7008C6.33237 14.5968 6.12966 14.5216 5.91919 14.4776L5.25937 14.3246C5.10384 14.296 4.95697 14.2321 4.83012 14.1376C4.78165 14.1002 4.74257 14.0521 4.71601 13.9969C4.68945 13.9417 4.67613 13.8811 4.67712 13.8199C4.67712 13.6542 4.743 13.5182 4.87369 13.4119C5.0065 13.3046 5.18819 13.2504 5.41769 13.2504C5.56962 13.2504 5.70031 13.2749 5.81081 13.3227C5.91252 13.3642 6.00234 13.4302 6.07219 13.515C6.13758 13.5939 6.1815 13.6883 6.19969 13.7891H6.99656C6.9833 13.5728 6.90969 13.3644 6.78406 13.1877C6.64978 12.997 6.46613 12.8465 6.25281 12.7521C5.99191 12.6377 5.70886 12.5825 5.42406 12.5906C5.11275 12.5906 4.83862 12.6438 4.59956 12.75C4.3605 12.8552 4.17456 13.005 4.03963 13.1973C3.90469 13.3907 3.83775 13.617 3.83775 13.8763C3.83775 14.0898 3.88025 14.2757 3.96738 14.433C4.0545 14.5913 4.17987 14.7199 4.34137 14.8229C4.50287 14.9239 4.69413 15.0004 4.91406 15.0492L5.57069 15.2022C5.79063 15.2543 5.95425 15.3223 6.06262 15.4073C6.11557 15.4477 6.15793 15.5003 6.18606 15.5606C6.21419 15.6209 6.22725 15.6872 6.22412 15.7537C6.22618 15.8632 6.19466 15.9707 6.13381 16.0618C6.0654 16.1551 5.97123 16.2264 5.86287 16.2669C5.74494 16.3168 5.59831 16.3412 5.42406 16.3412C5.29975 16.3412 5.18712 16.3274 5.08406 16.2987C4.99013 16.2727 4.90112 16.2314 4.82056 16.1766C4.74983 16.1308 4.68927 16.0709 4.64266 16.0007C4.59605 15.9305 4.56438 15.8515 4.54962 15.7686H3.73681ZM0.856375 14.5488C0.856375 14.2853 0.8925 14.0601 0.96475 13.8763C1.02777 13.7065 1.13937 13.5591 1.28562 13.4523C1.4347 13.3526 1.61106 13.3018 1.79031 13.3068C1.94969 13.3068 2.091 13.3408 2.21319 13.4098C2.33293 13.4738 2.43287 13.5693 2.50219 13.6861C2.57624 13.809 2.61995 13.9477 2.62969 14.0909H3.4425V14.0144C3.43545 13.8187 3.3878 13.6265 3.30256 13.4502C3.21733 13.2739 3.09637 13.1172 2.94737 12.9901C2.79473 12.8608 2.61822 12.7626 2.42781 12.7011C2.22048 12.6309 2.00282 12.5961 1.78394 12.5981C1.40569 12.5981 1.08269 12.6767 0.816 12.835C0.550375 12.9922 0.3485 13.2164 0.20825 13.5065C0.070125 13.7976 0 14.144 0 14.5467V15.0758C0 15.4785 0.068 15.8238 0.205063 16.1128C0.34425 16.4007 0.547188 16.6228 0.812813 16.7779C1.07844 16.932 1.40144 17.0085 1.78394 17.0085C2.09525 17.0085 2.37256 16.9501 2.618 16.8342C2.86238 16.7174 3.05787 16.558 3.20237 16.3519C3.34896 16.1409 3.43226 15.8924 3.4425 15.6357V15.555H2.63075C2.62073 15.6918 2.57771 15.8241 2.50538 15.9407C2.43457 16.0535 2.33476 16.1452 2.21637 16.2063C2.0837 16.2705 1.93766 16.3022 1.79031 16.2987C1.6108 16.3038 1.43389 16.255 1.28244 16.1585C1.13694 16.0549 1.02619 15.9097 0.96475 15.742C0.887063 15.5287 0.850296 15.3027 0.856375 15.0758V14.5499V14.5488ZM9.61031 16.9267H8.59775L7.17613 12.6778H8.15044L9.10244 16.0119H9.14281L10.0863 12.6778H11.0202L9.61031 16.9277V16.9267Z" fill="url(#paint0_linear_73_666)" stroke="url(#paint1_linear_73_666)" stroke-width="0.5"/>
</g>
<defs>
<linearGradient id="paint0_linear_73_666" x1="0" y1="8.50425" x2="14.875" y2="8.50425" gradientUnits="userSpaceOnUse">
<stop stop-color="#37ECBA"/>
<stop offset="1" stop-color="#72AFD3"/>
</linearGradient>
<linearGradient id="paint1_linear_73_666" x1="0" y1="8.50425" x2="14.875" y2="8.50425" gradientUnits="userSpaceOnUse">
<stop stop-color="#37ECBA"/>
<stop offset="1" stop-color="#72AFD3"/>
</linearGradient>
<clipPath id="clip0_73_666">
<rect width="17" height="17" fill="white"/>
</clipPath>
</defs>
</svg>
