<svg width="572" height="444" viewBox="0 0 572 444" fill="none" xmlns="http://www.w3.org/2000/svg">
<path opacity="0.5" fill-rule="evenodd" clip-rule="evenodd" d="M305.292 0.00108876C355.067 -0.23114 363.013 36.7364 405.218 63.1244C452.761 92.8505 525.589 82.5888 554.895 130.393C584.723 179.048 570.877 244.684 548.779 297.302C527.741 347.395 482.646 380.801 437.214 410.597C393.831 439.049 347.709 450.553 296.934 439.903C247.386 429.511 234.87 382.982 190.378 358.825C133.582 327.988 39.4253 364.606 8.18673 308.029C-21.1189 254.953 34.9739 190.98 70.6279 141.942C98.506 103.599 148.048 93.2073 185.505 64.1495C224.864 33.6162 255.479 0.233496 305.292 0.00108876Z" fill="url(#paint0_linear_705_4217)"/>
<path d="M127.572 253.824C140.668 249.924 148.196 253.716 161.444 253.824C176.286 253.946 184.392 249.196 199.716 253.824" stroke="url(#paint1_linear_705_4217)" stroke-width="3" stroke-linecap="round"/>
<path d="M232.268 206.586C245.364 202.685 252.893 206.477 266.141 206.586C280.983 206.708 289.089 201.957 304.412 206.586" stroke="url(#paint2_linear_705_4217)" stroke-width="3" stroke-linecap="round"/>
<path d="M135.49 114.206C148.586 110.306 156.115 114.097 169.362 114.206C184.204 114.328 192.311 109.578 207.634 114.206" stroke="url(#paint3_linear_705_4217)" stroke-width="3" stroke-linecap="round"/>
<path d="M263.062 34.144C276.158 30.2436 283.686 34.0352 296.934 34.144C311.776 34.266 319.882 29.5155 335.205 34.144" stroke="url(#paint4_linear_705_4217)" stroke-width="3" stroke-linecap="round"/>
<path d="M391.513 173.153C404.609 169.253 412.138 173.044 425.385 173.153C440.227 173.275 448.334 168.525 463.657 173.153" stroke="url(#paint5_linear_705_4217)" stroke-width="3" stroke-linecap="round"/>
<path d="M391.513 143.24C404.609 139.339 412.138 143.131 425.385 143.24C440.227 143.362 448.334 138.611 463.657 143.24" stroke="url(#paint6_linear_705_4217)" stroke-width="3" stroke-linecap="round"/>
<path d="M492.69 204.826C505.787 200.926 513.315 204.717 526.563 204.826C541.405 204.948 549.511 200.198 564.834 204.826" stroke="url(#paint7_linear_705_4217)" stroke-width="3" stroke-linecap="round"/>
<path d="M471.575 288.407C484.671 284.507 492.2 288.299 505.448 288.407C520.289 288.529 528.396 283.779 543.719 288.407" stroke="url(#paint8_linear_705_4217)" stroke-width="3" stroke-linecap="round"/>
<path d="M313.21 392.225C326.307 388.324 333.835 392.116 347.083 392.225C361.925 392.347 370.031 387.596 385.354 392.225" stroke="url(#paint9_linear_705_4217)" stroke-width="3" stroke-linecap="round"/>
<path d="M249.865 364.071C262.961 360.17 270.489 363.962 283.737 364.071C298.579 364.193 306.685 359.442 322.008 364.071" stroke="url(#paint10_linear_705_4217)" stroke-width="3" stroke-linecap="round"/>
<path d="M21.9951 290.167C35.0912 286.267 42.6199 290.058 55.8676 290.167C70.7094 290.289 78.8158 285.539 94.1391 290.167" stroke="url(#paint11_linear_705_4217)" stroke-width="3" stroke-linecap="round"/>
<path d="M51.0287 222.149C57.8961 218.773 61.8441 222.055 68.7911 222.149C76.574 222.255 80.8249 218.143 88.8603 222.149" stroke="url(#paint12_linear_705_4217)" stroke-width="3" stroke-linecap="round"/>
<path d="M300.013 233.587C306.881 230.21 310.829 233.493 317.776 233.587C325.559 233.693 329.81 229.58 337.845 233.587" stroke="url(#paint13_linear_705_4217)" stroke-width="3" stroke-linecap="round"/>
<path d="M498.849 308.37C505.717 304.994 509.665 308.276 516.612 308.37C524.394 308.476 528.645 304.364 536.681 308.37" stroke="url(#paint14_linear_705_4217)" stroke-width="3" stroke-linecap="round"/>
<path d="M380.955 254.702C387.823 251.326 391.771 254.608 398.718 254.702C406.501 254.808 410.752 250.696 418.787 254.702" stroke="url(#paint15_linear_705_4217)" stroke-width="3" stroke-linecap="round"/>
<path d="M88.8602 134.169C117.894 128.892 111.544 137.596 139.009 137.69M139.009 137.69C155.521 137.747 154.585 133.817 172.882 132.412M139.009 137.69L172.882 132.412M238.427 134.169C197.516 146.489 188.681 131.198 172.882 132.412" stroke="url(#paint16_linear_705_4217)" stroke-width="3" stroke-linecap="round"/>
<path d="M283.297 86.7291C312.331 81.4524 305.981 90.1561 333.446 90.2503M333.446 90.2503C349.958 90.307 349.021 86.3773 367.318 84.9714M333.446 90.2503L367.318 84.9714M432.864 86.7291C391.953 99.0485 383.118 83.7575 367.318 84.9714" stroke="url(#paint17_linear_705_4217)" stroke-width="3" stroke-linecap="round"/>
<path d="M163.644 340.113C192.677 334.836 186.328 343.54 213.793 343.634M213.793 343.634C230.304 343.691 229.368 339.761 247.665 338.355M213.793 343.634L247.665 338.355M313.21 340.113C272.3 352.432 263.464 337.141 247.665 338.355" stroke="url(#paint18_linear_705_4217)" stroke-width="3" stroke-linecap="round"/>
<path d="M141.589 180.458C147.174 180.32 154.51 176.339 159.685 179.921L169.802 177.282C175.443 169.472 170.384 161.234 160.959 159.744C160.707 159.704 160.448 159.768 160.242 159.917C157.869 161.63 156.322 163.035 153.526 165.844C150.968 166.132 149.226 166.391 145.776 167.048C145.404 167.118 145.102 167.394 145.005 167.761C144.386 170.103 144.247 171.617 144.288 174.202C143.558 175.526 142.628 176.82 140.935 179.014C140.468 179.619 140.825 180.477 141.589 180.458Z" fill="url(#paint19_linear_705_4217)"/>
<path d="M130.541 195.937L130.574 196.016C130.624 196.135 130.698 196.244 130.789 196.335L134.16 199.706C134.434 199.981 134.525 200.39 134.392 200.755L132.851 204.995L132.851 204.996C132.848 205.003 122.146 234.368 114.374 227.871C110.707 224.804 116.009 213.276 114.606 211.739C114.484 211.605 114.309 211.519 114.177 211.395C110.711 208.162 104.022 214.979 102.057 211.594C100.195 208.386 106.357 202.96 106.456 200.157C107.036 191.111 107.437 186.095 112.446 183.1C112.556 183.034 112.684 182.99 112.811 182.973C124.384 181.393 126.623 186.683 130.541 195.937Z" fill="url(#paint20_linear_705_4217)"/>
<path d="M196.354 192.147C180.39 162.649 145.957 182.495 130.651 196.198L134.16 199.706C134.435 199.981 134.525 200.39 134.392 200.755L132.851 204.996C162.411 227.253 187.247 206.666 196.319 193.158C196.52 192.858 196.526 192.466 196.354 192.147Z" fill="url(#paint21_linear_705_4217)"/>
<circle cx="183.879" cy="192.238" r="2.63941" fill="url(#paint22_linear_705_4217)"/>
<path opacity="0.5" d="M220.513 214.81C177.609 174.075 132.609 222.872 83.4733 202.967C82.527 202.584 81.6374 203.695 82.2527 204.51C120.5 255.162 184.357 222.217 219.935 218.715C220.452 218.664 220.831 218.233 220.831 217.714V215.539C220.831 215.267 220.711 214.997 220.513 214.81Z" fill="url(#paint23_linear_705_4217)"/>
<path d="M484.457 85.6357C480.29 85.3608 474.974 82.6274 471.188 85.2487L463.536 83.2526C459.289 77.3726 463.062 71.1719 470.129 70.0048C470.38 69.9634 470.638 70.0274 470.844 70.1768C472.595 71.4472 473.761 72.5094 475.845 74.603C477.743 74.8165 479.046 75.0089 481.558 75.485C481.93 75.5554 482.232 75.8312 482.327 76.1978C482.763 77.8878 482.862 79.023 482.831 80.9239C483.346 81.8567 483.991 82.7705 485.114 84.2336C485.578 84.8396 485.219 85.686 484.457 85.6357Z" fill="url(#paint24_linear_705_4217)"/>
<path d="M493.228 97.3606L493.221 97.3764C493.171 97.4949 493.097 97.6044 493.006 97.6954L490.6 100.101C490.326 100.376 490.235 100.785 490.368 101.15L491.481 104.211L491.481 104.211C491.483 104.218 499.576 126.424 505.453 121.51C508.188 119.224 504.329 110.718 505.236 109.365C505.337 109.214 505.516 109.126 505.652 109.006C508.286 106.67 513.292 111.745 514.768 109.201C516.176 106.775 511.516 102.672 511.441 100.552C511.005 93.7354 510.702 89.945 506.952 87.6767C506.843 87.6105 506.715 87.5673 506.588 87.5502C497.877 86.3765 496.185 90.3753 493.228 97.3606Z" fill="url(#paint25_linear_705_4217)"/>
<path d="M443.526 94.367C455.629 72.244 481.591 87.2152 493.144 97.5576L490.6 100.101C490.326 100.376 490.235 100.785 490.368 101.15L491.481 104.211C469.211 120.979 450.488 105.593 443.563 95.3773C443.36 95.0777 443.352 94.6845 443.526 94.367Z" fill="url(#paint26_linear_705_4217)"/>
<circle r="1.99606" transform="matrix(-1 0 0 1 452.89 94.5634)" fill="url(#paint27_linear_705_4217)"/>
<path opacity="0.5" d="M425.263 111.56C457.444 81.1147 491.186 117.173 527.993 103.005C528.946 102.638 529.829 103.747 529.202 104.553C500.299 141.738 452.624 117.353 425.844 114.608C425.327 114.555 424.946 114.125 424.946 113.606V112.289C424.946 112.016 425.065 111.747 425.263 111.56Z" fill="url(#paint28_linear_705_4217)"/>
<path d="M363.326 240.385L371.684 241.705L372.564 263.7L361.127 262.38L363.326 240.385Z" fill="url(#paint29_linear_705_4217)"/>
<path d="M376.963 236.866L290.742 185.837C291.182 199.474 281.944 221.469 274.906 225.429L373.884 242.585C376.319 241.058 377.116 239.877 376.963 236.866Z" fill="url(#paint30_linear_705_4217)"/>
<ellipse cx="281.87" cy="205.374" rx="6.15863" ry="22.0575" transform="rotate(20.613 281.87 205.374)" fill="url(#paint31_linear_705_4217)"/>
<path d="M317.576 201.674L324.175 205.633C322.381 216.8 320.842 222.572 315.377 232.467L307.459 231.147C313.544 218.504 315.636 211.541 317.576 201.674Z" fill="url(#paint32_linear_705_4217)"/>
<path d="M353.648 230.267C353.648 226.748 356.875 226.308 358.927 226.308C357.694 223.789 357.209 222.101 353.648 220.15C348.721 218.39 346.317 224.402 345.73 227.628C341.385 247.68 338.584 259.638 340.246 271.204C340.365 272.031 340.849 272.758 341.554 273.207C352.334 280.073 359.267 282.517 370.271 286.24C371.609 286.692 372.451 288.016 372.292 289.419L369.045 318.05H408.636V283.936C407.924 275.727 404.237 268.979 396.319 266.339L356.25 260.969C354.76 260.77 353.648 259.499 353.648 257.996V230.267Z" fill="url(#paint33_linear_705_4217)"/>
<path d="M386.201 262.38L385.761 265.02L396.759 266.779L402.918 248.743C404.49 243.283 405.062 240.261 404.237 235.106C397.639 224.989 385.908 227.335 382.242 230.268L374.86 250.861C374.222 252.639 373.978 254.637 374.946 256.259C377.509 260.55 383.233 262.133 386.201 262.38Z" fill="url(#paint34_linear_705_4217)"/>
<path d="M405.117 239.066C405.374 243.169 403.797 252.263 401.158 256.222C399.53 258.664 396.829 254.719 394.12 253.582C391.977 252.684 399.953 242.148 398.079 241.265C397.199 237.746 376.863 240.825 380.922 231.148C382.238 228.011 390.262 225.783 396.759 228.508C403.256 231.233 406.433 235.929 405.117 239.066Z" fill="url(#paint35_linear_705_4217)"/>
<path d="M352.802 318.321C365.898 314.421 373.426 318.212 386.674 318.321C401.516 318.443 409.622 313.693 424.946 318.321" stroke="url(#paint36_linear_705_4217)" stroke-width="3" stroke-linecap="round"/>
<path opacity="0.5" d="M454.541 311.084C411.637 270.35 366.637 319.147 317.501 299.242C316.555 298.858 315.665 299.97 316.281 300.785C354.528 351.437 418.385 318.491 453.963 314.989C454.48 314.938 454.859 314.508 454.859 313.988V311.814C454.859 311.541 454.739 311.272 454.541 311.084Z" fill="url(#paint37_linear_705_4217)"/>
<defs>
<linearGradient id="paint0_linear_705_4217" x1="0" y1="221.909" x2="572" y2="221.909" gradientUnits="userSpaceOnUse">
<stop stop-color="#16D9E3"/>
<stop offset="0.47" stop-color="#30C7EC"/>
<stop offset="1" stop-color="#46AEF7"/>
</linearGradient>
<linearGradient id="paint1_linear_705_4217" x1="127.572" y1="252.81" x2="199.716" y2="252.81" gradientUnits="userSpaceOnUse">
<stop stop-color="#D5DEE7"/>
<stop offset="0.5" stop-color="#E8EBF2"/>
<stop offset="1" stop-color="#E2E7ED"/>
</linearGradient>
<linearGradient id="paint2_linear_705_4217" x1="232.268" y1="205.572" x2="304.412" y2="205.572" gradientUnits="userSpaceOnUse">
<stop stop-color="#D5DEE7"/>
<stop offset="0.5" stop-color="#E8EBF2"/>
<stop offset="1" stop-color="#E2E7ED"/>
</linearGradient>
<linearGradient id="paint3_linear_705_4217" x1="135.49" y1="113.192" x2="207.634" y2="113.192" gradientUnits="userSpaceOnUse">
<stop stop-color="#D5DEE7"/>
<stop offset="0.5" stop-color="#E8EBF2"/>
<stop offset="1" stop-color="#E2E7ED"/>
</linearGradient>
<linearGradient id="paint4_linear_705_4217" x1="263.062" y1="33.1301" x2="335.205" y2="33.1301" gradientUnits="userSpaceOnUse">
<stop stop-color="#D5DEE7"/>
<stop offset="0.5" stop-color="#E8EBF2"/>
<stop offset="1" stop-color="#E2E7ED"/>
</linearGradient>
<linearGradient id="paint5_linear_705_4217" x1="391.513" y1="172.139" x2="463.657" y2="172.139" gradientUnits="userSpaceOnUse">
<stop stop-color="#D5DEE7"/>
<stop offset="0.5" stop-color="#E8EBF2"/>
<stop offset="1" stop-color="#E2E7ED"/>
</linearGradient>
<linearGradient id="paint6_linear_705_4217" x1="391.513" y1="142.226" x2="463.657" y2="142.226" gradientUnits="userSpaceOnUse">
<stop stop-color="#D5DEE7"/>
<stop offset="0.5" stop-color="#E8EBF2"/>
<stop offset="1" stop-color="#E2E7ED"/>
</linearGradient>
<linearGradient id="paint7_linear_705_4217" x1="492.69" y1="203.812" x2="564.834" y2="203.812" gradientUnits="userSpaceOnUse">
<stop stop-color="#D5DEE7"/>
<stop offset="0.5" stop-color="#E8EBF2"/>
<stop offset="1" stop-color="#E2E7ED"/>
</linearGradient>
<linearGradient id="paint8_linear_705_4217" x1="471.575" y1="287.393" x2="543.719" y2="287.393" gradientUnits="userSpaceOnUse">
<stop stop-color="#D5DEE7"/>
<stop offset="0.5" stop-color="#E8EBF2"/>
<stop offset="1" stop-color="#E2E7ED"/>
</linearGradient>
<linearGradient id="paint9_linear_705_4217" x1="313.21" y1="391.211" x2="385.354" y2="391.211" gradientUnits="userSpaceOnUse">
<stop stop-color="#D5DEE7"/>
<stop offset="0.5" stop-color="#E8EBF2"/>
<stop offset="1" stop-color="#E2E7ED"/>
</linearGradient>
<linearGradient id="paint10_linear_705_4217" x1="249.865" y1="363.057" x2="322.008" y2="363.057" gradientUnits="userSpaceOnUse">
<stop stop-color="#D5DEE7"/>
<stop offset="0.5" stop-color="#E8EBF2"/>
<stop offset="1" stop-color="#E2E7ED"/>
</linearGradient>
<linearGradient id="paint11_linear_705_4217" x1="21.9951" y1="289.153" x2="94.1391" y2="289.153" gradientUnits="userSpaceOnUse">
<stop stop-color="#D5DEE7"/>
<stop offset="0.5" stop-color="#E8EBF2"/>
<stop offset="1" stop-color="#E2E7ED"/>
</linearGradient>
<linearGradient id="paint12_linear_705_4217" x1="51.0287" y1="221.272" x2="88.8603" y2="221.272" gradientUnits="userSpaceOnUse">
<stop stop-color="#D5DEE7"/>
<stop offset="0.5" stop-color="#E8EBF2"/>
<stop offset="1" stop-color="#E2E7ED"/>
</linearGradient>
<linearGradient id="paint13_linear_705_4217" x1="300.013" y1="232.709" x2="337.845" y2="232.709" gradientUnits="userSpaceOnUse">
<stop stop-color="#D5DEE7"/>
<stop offset="0.5" stop-color="#E8EBF2"/>
<stop offset="1" stop-color="#E2E7ED"/>
</linearGradient>
<linearGradient id="paint14_linear_705_4217" x1="498.849" y1="307.493" x2="536.681" y2="307.493" gradientUnits="userSpaceOnUse">
<stop stop-color="#D5DEE7"/>
<stop offset="0.5" stop-color="#E8EBF2"/>
<stop offset="1" stop-color="#E2E7ED"/>
</linearGradient>
<linearGradient id="paint15_linear_705_4217" x1="380.955" y1="253.825" x2="418.787" y2="253.825" gradientUnits="userSpaceOnUse">
<stop stop-color="#D5DEE7"/>
<stop offset="0.5" stop-color="#E8EBF2"/>
<stop offset="1" stop-color="#E2E7ED"/>
</linearGradient>
<linearGradient id="paint16_linear_705_4217" x1="88.8602" y1="135.67" x2="238.427" y2="135.67" gradientUnits="userSpaceOnUse">
<stop stop-color="#D5DEE7"/>
<stop offset="0.5" stop-color="#E8EBF2"/>
<stop offset="1" stop-color="#E2E7ED"/>
</linearGradient>
<linearGradient id="paint17_linear_705_4217" x1="283.297" y1="88.2295" x2="432.864" y2="88.2295" gradientUnits="userSpaceOnUse">
<stop stop-color="#D5DEE7"/>
<stop offset="0.5" stop-color="#E8EBF2"/>
<stop offset="1" stop-color="#E2E7ED"/>
</linearGradient>
<linearGradient id="paint18_linear_705_4217" x1="163.644" y1="341.613" x2="313.21" y2="341.613" gradientUnits="userSpaceOnUse">
<stop stop-color="#D5DEE7"/>
<stop offset="0.5" stop-color="#E8EBF2"/>
<stop offset="1" stop-color="#E2E7ED"/>
</linearGradient>
<linearGradient id="paint19_linear_705_4217" x1="139.889" y1="170.074" x2="172.165" y2="170.074" gradientUnits="userSpaceOnUse">
<stop stop-color="#D5DEE7"/>
<stop offset="0.5" stop-color="#E8EBF2"/>
<stop offset="1" stop-color="#E2E7ED"/>
</linearGradient>
<linearGradient id="paint20_linear_705_4217" x1="101.707" y1="205.753" x2="134.61" y2="205.753" gradientUnits="userSpaceOnUse">
<stop stop-color="#D5DEE7"/>
<stop offset="0.5" stop-color="#E8EBF2"/>
<stop offset="1" stop-color="#E2E7ED"/>
</linearGradient>
<linearGradient id="paint21_linear_705_4217" x1="130.651" y1="195.844" x2="196.636" y2="195.844" gradientUnits="userSpaceOnUse">
<stop stop-color="#667EEA"/>
<stop offset="1" stop-color="#764BA2"/>
</linearGradient>
<linearGradient id="paint22_linear_705_4217" x1="181.24" y1="192.238" x2="186.519" y2="192.238" gradientUnits="userSpaceOnUse">
<stop stop-color="#29323C"/>
<stop offset="1" stop-color="#485563"/>
</linearGradient>
<linearGradient id="paint23_linear_705_4217" x1="80.0623" y1="215.245" x2="220.831" y2="215.245" gradientUnits="userSpaceOnUse">
<stop stop-color="#16D9E3"/>
<stop offset="0.47" stop-color="#30C7EC"/>
<stop offset="1" stop-color="#46AEF7"/>
</linearGradient>
<linearGradient id="paint24_linear_705_4217" x1="486.158" y1="77.8016" x2="461.749" y2="77.8016" gradientUnits="userSpaceOnUse">
<stop stop-color="#D5DEE7"/>
<stop offset="0.5" stop-color="#E8EBF2"/>
<stop offset="1" stop-color="#E2E7ED"/>
</linearGradient>
<linearGradient id="paint25_linear_705_4217" x1="515.033" y1="104.784" x2="490.15" y2="104.784" gradientUnits="userSpaceOnUse">
<stop stop-color="#D5DEE7"/>
<stop offset="0.5" stop-color="#E8EBF2"/>
<stop offset="1" stop-color="#E2E7ED"/>
</linearGradient>
<linearGradient id="paint26_linear_705_4217" x1="493.144" y1="97.2901" x2="443.243" y2="97.2901" gradientUnits="userSpaceOnUse">
<stop stop-color="#667EEA"/>
<stop offset="1" stop-color="#764BA2"/>
</linearGradient>
<linearGradient id="paint27_linear_705_4217" x1="0" y1="1.99606" x2="3.99211" y2="1.99606" gradientUnits="userSpaceOnUse">
<stop stop-color="#29323C"/>
<stop offset="1" stop-color="#485563"/>
</linearGradient>
<linearGradient id="paint28_linear_705_4217" x1="531.402" y1="111.963" x2="424.946" y2="111.963" gradientUnits="userSpaceOnUse">
<stop stop-color="#16D9E3"/>
<stop offset="0.47" stop-color="#30C7EC"/>
<stop offset="1" stop-color="#46AEF7"/>
</linearGradient>
<linearGradient id="paint29_linear_705_4217" x1="361.127" y1="252.043" x2="372.564" y2="252.043" gradientUnits="userSpaceOnUse">
<stop stop-color="#E6B980"/>
<stop offset="1" stop-color="#EACDA3"/>
</linearGradient>
<linearGradient id="paint30_linear_705_4217" x1="274.906" y1="214.211" x2="376.981" y2="214.211" gradientUnits="userSpaceOnUse">
<stop stop-color="#667EEA"/>
<stop offset="1" stop-color="#764BA2"/>
</linearGradient>
<linearGradient id="paint31_linear_705_4217" x1="275.712" y1="205.374" x2="288.029" y2="205.374" gradientUnits="userSpaceOnUse">
<stop stop-color="#D5DEE7"/>
<stop offset="0.5" stop-color="#E8EBF2"/>
<stop offset="1" stop-color="#E2E7ED"/>
</linearGradient>
<linearGradient id="paint32_linear_705_4217" x1="311.482" y1="216.133" x2="321.411" y2="218.793" gradientUnits="userSpaceOnUse">
<stop stop-color="#D5DEE7"/>
<stop offset="0.5" stop-color="#E8EBF2"/>
<stop offset="1" stop-color="#E2E7ED"/>
</linearGradient>
<linearGradient id="paint33_linear_705_4217" x1="339.761" y1="268.942" x2="408.636" y2="268.942" gradientUnits="userSpaceOnUse">
<stop stop-color="#E6B980"/>
<stop offset="1" stop-color="#EACDA3"/>
</linearGradient>
<linearGradient id="paint34_linear_705_4217" x1="373.884" y1="247.263" x2="404.613" y2="247.263" gradientUnits="userSpaceOnUse">
<stop stop-color="#E6B980"/>
<stop offset="1" stop-color="#EACDA3"/>
</linearGradient>
<linearGradient id="paint35_linear_705_4217" x1="379.357" y1="234.88" x2="405.71" y2="245.935" gradientUnits="userSpaceOnUse">
<stop stop-color="#29323C"/>
<stop offset="1" stop-color="#485563"/>
</linearGradient>
<linearGradient id="paint36_linear_705_4217" x1="352.802" y1="317.307" x2="424.946" y2="317.307" gradientUnits="userSpaceOnUse">
<stop stop-color="#D5DEE7"/>
<stop offset="0.5" stop-color="#E8EBF2"/>
<stop offset="1" stop-color="#E2E7ED"/>
</linearGradient>
<linearGradient id="paint37_linear_705_4217" x1="314.09" y1="311.52" x2="454.859" y2="311.52" gradientUnits="userSpaceOnUse">
<stop stop-color="#16D9E3"/>
<stop offset="0.47" stop-color="#30C7EC"/>
<stop offset="1" stop-color="#46AEF7"/>
</linearGradient>
</defs>
</svg>
