<svg width="1200" height="168" viewBox="0 0 1200 168" fill="none" xmlns="http://www.w3.org/2000/svg">
<g filter="url(#filter0_d_2268_23001)">
<g clip-path="url(#clip0_2268_23001)">
<path d="M10 61H1190V152C1190 155.314 1187.31 158 1184 158H16C12.6863 158 10 155.314 10 152V61Z" fill="white"/>
<mask id="path-2-inside-1_2268_23001" fill="white">
<path d="M10 61H403V159H10V61Z"/>
</mask>
<path d="M10 61H403V159H10V61Z" fill="white"/>
<path d="M402 61V159H404V61H402Z" fill="#DEE2E6" mask="url(#path-2-inside-1_2268_23001)"/>
<g clip-path="url(#clip1_2268_23001)">
<path d="M131.802 106.365C131.686 106.249 131.548 106.157 131.396 106.094C131.244 106.031 131.081 105.999 130.917 105.999C130.752 105.999 130.59 106.031 130.438 106.094C130.286 106.157 130.148 106.249 130.032 106.365C129.916 106.481 129.823 106.619 129.76 106.771C129.698 106.923 129.665 107.086 129.665 107.25C129.665 107.414 129.698 107.577 129.76 107.729C129.823 107.881 129.916 108.019 130.032 108.135L132.899 111L130.032 113.865C129.797 114.1 129.665 114.418 129.665 114.75C129.665 115.082 129.797 115.4 130.032 115.635C130.266 115.87 130.585 116.002 130.917 116.002C131.249 116.002 131.567 115.87 131.802 115.635L134.667 112.768L137.532 115.635C137.766 115.87 138.085 116.002 138.417 116.002C138.749 116.002 139.067 115.87 139.302 115.635C139.536 115.4 139.668 115.082 139.668 114.75C139.668 114.418 139.536 114.1 139.302 113.865L136.434 111L139.302 108.135C139.536 107.9 139.668 107.582 139.668 107.25C139.668 106.918 139.536 106.6 139.302 106.365C139.067 106.13 138.749 105.999 138.417 105.999C138.085 105.999 137.766 106.13 137.532 106.365L134.667 109.233L131.802 106.365Z" fill="#C72C41"/>
<path d="M149.667 123.5V99.75L138.417 88.5H124.667C123.341 88.5 122.069 89.0268 121.131 89.9645C120.194 90.9021 119.667 92.1739 119.667 93.5V123.5C119.667 124.826 120.194 126.098 121.131 127.036C122.069 127.973 123.341 128.5 124.667 128.5H144.667C145.993 128.5 147.265 127.973 148.202 127.036C149.14 126.098 149.667 124.826 149.667 123.5ZM138.417 96C138.417 96.9946 138.812 97.9484 139.515 98.6517C140.218 99.3549 141.172 99.75 142.167 99.75H147.167V123.5C147.167 124.163 146.903 124.799 146.435 125.268C145.966 125.737 145.33 126 144.667 126H124.667C124.004 126 123.368 125.737 122.899 125.268C122.43 124.799 122.167 124.163 122.167 123.5V93.5C122.167 92.837 122.43 92.2011 122.899 91.7322C123.368 91.2634 124.004 91 124.667 91H138.417V96Z" fill="#C72C41"/>
</g>
<path d="M175.585 86.6364V107H171.279V90.723H171.16L166.497 93.6463V89.8281L171.538 86.6364H175.585ZM188.24 107.278C187.193 107.272 186.182 107.096 185.207 106.751C184.24 106.407 183.371 105.847 182.602 105.071C181.833 104.295 181.224 103.268 180.773 101.989C180.329 100.709 180.107 99.1383 180.107 97.2756C180.113 95.5653 180.309 94.0374 180.693 92.6918C181.084 91.3395 181.641 90.1927 182.364 89.2514C183.093 88.3101 183.965 87.5942 184.979 87.1037C185.993 86.6065 187.13 86.358 188.389 86.358C189.748 86.358 190.948 86.6231 191.989 87.1534C193.029 87.6771 193.865 88.3897 194.494 89.2912C195.131 90.1927 195.515 91.2036 195.648 92.3239H191.402C191.236 91.6146 190.888 91.0578 190.358 90.6534C189.828 90.2491 189.171 90.0469 188.389 90.0469C187.063 90.0469 186.056 90.6236 185.366 91.777C184.684 92.9304 184.336 94.4981 184.322 96.4801H184.462C184.767 95.8769 185.178 95.3632 185.695 94.9389C186.218 94.508 186.812 94.1799 187.474 93.9545C188.144 93.7225 188.85 93.6065 189.592 93.6065C190.799 93.6065 191.873 93.8916 192.814 94.4616C193.755 95.0251 194.498 95.8007 195.041 96.7884C195.585 97.776 195.857 98.9062 195.857 100.179C195.857 101.558 195.535 102.784 194.892 103.858C194.256 104.932 193.364 105.774 192.217 106.384C191.077 106.987 189.751 107.285 188.24 107.278ZM188.22 103.898C188.883 103.898 189.476 103.739 190 103.42C190.524 103.102 190.935 102.671 191.233 102.128C191.531 101.584 191.68 100.974 191.68 100.298C191.68 99.6222 191.531 99.0156 191.233 98.4787C190.941 97.9418 190.537 97.5142 190.02 97.196C189.503 96.8778 188.913 96.7188 188.25 96.7188C187.753 96.7188 187.292 96.8116 186.868 96.9972C186.45 97.1828 186.082 97.4413 185.764 97.7727C185.453 98.1042 185.207 98.4886 185.028 98.9261C184.849 99.357 184.76 99.8177 184.76 100.308C184.76 100.964 184.909 101.564 185.207 102.108C185.512 102.652 185.923 103.086 186.44 103.411C186.964 103.735 187.557 103.898 188.22 103.898Z" fill="#54595E"/>
<path d="M165.455 118.912V117.818H173.092V118.912H169.89V128H168.657V118.912H165.455ZM176.83 128.159C176.141 128.159 175.536 127.995 175.016 127.667C174.499 127.339 174.094 126.88 173.802 126.29C173.514 125.7 173.37 125.01 173.37 124.222C173.37 123.426 173.514 122.732 173.802 122.138C174.094 121.545 174.499 121.085 175.016 120.756C175.536 120.428 176.141 120.264 176.83 120.264C177.52 120.264 178.123 120.428 178.64 120.756C179.16 121.085 179.565 121.545 179.853 122.138C180.145 122.732 180.29 123.426 180.29 124.222C180.29 125.01 180.145 125.7 179.853 126.29C179.565 126.88 179.16 127.339 178.64 127.667C178.123 127.995 177.52 128.159 176.83 128.159ZM176.83 127.105C177.354 127.105 177.785 126.971 178.123 126.702C178.461 126.434 178.711 126.081 178.874 125.643C179.036 125.206 179.117 124.732 179.117 124.222C179.117 123.711 179.036 123.236 178.874 122.795C178.711 122.354 178.461 121.998 178.123 121.726C177.785 121.454 177.354 121.318 176.83 121.318C176.307 121.318 175.876 121.454 175.538 121.726C175.2 121.998 174.949 122.354 174.787 122.795C174.624 123.236 174.543 123.711 174.543 124.222C174.543 124.732 174.624 125.206 174.787 125.643C174.949 126.081 175.2 126.434 175.538 126.702C175.876 126.971 176.307 127.105 176.83 127.105ZM185.402 120.364V121.358H181.445V120.364H185.402ZM182.598 118.534H183.772V125.812C183.772 126.144 183.82 126.393 183.916 126.558C184.015 126.721 184.141 126.83 184.294 126.886C184.45 126.939 184.614 126.966 184.786 126.966C184.915 126.966 185.021 126.959 185.104 126.946C185.187 126.929 185.253 126.916 185.303 126.906L185.542 127.96C185.462 127.99 185.351 128.02 185.209 128.05C185.066 128.083 184.885 128.099 184.667 128.099C184.335 128.099 184.01 128.028 183.692 127.886C183.377 127.743 183.116 127.526 182.907 127.234C182.701 126.943 182.598 126.575 182.598 126.131V118.534ZM189.415 128.179C188.931 128.179 188.491 128.088 188.097 127.906C187.703 127.72 187.389 127.453 187.157 127.105C186.925 126.754 186.809 126.33 186.809 125.832C186.809 125.395 186.896 125.04 187.068 124.768C187.24 124.493 187.471 124.278 187.759 124.122C188.047 123.966 188.366 123.85 188.714 123.774C189.065 123.695 189.418 123.632 189.772 123.585C190.236 123.526 190.613 123.481 190.901 123.451C191.193 123.418 191.405 123.363 191.537 123.287C191.673 123.211 191.741 123.078 191.741 122.889V122.849C191.741 122.359 191.607 121.978 191.339 121.706C191.073 121.434 190.671 121.298 190.13 121.298C189.57 121.298 189.131 121.421 188.813 121.666C188.495 121.911 188.271 122.173 188.142 122.452L187.028 122.054C187.227 121.59 187.492 121.229 187.824 120.97C188.158 120.708 188.523 120.526 188.917 120.423C189.315 120.317 189.706 120.264 190.091 120.264C190.336 120.264 190.618 120.294 190.936 120.354C191.257 120.41 191.567 120.528 191.866 120.707C192.167 120.886 192.417 121.156 192.616 121.517C192.815 121.878 192.915 122.362 192.915 122.969V128H191.741V126.966H191.682C191.602 127.132 191.469 127.309 191.284 127.498C191.098 127.687 190.851 127.848 190.543 127.98C190.235 128.113 189.859 128.179 189.415 128.179ZM189.594 127.125C190.058 127.125 190.449 127.034 190.767 126.852C191.088 126.669 191.33 126.434 191.493 126.146C191.658 125.857 191.741 125.554 191.741 125.236V124.162C191.692 124.222 191.582 124.276 191.413 124.326C191.247 124.372 191.055 124.414 190.836 124.45C190.621 124.483 190.411 124.513 190.205 124.54C190.003 124.563 189.839 124.583 189.713 124.599C189.408 124.639 189.123 124.704 188.858 124.793C188.596 124.879 188.384 125.01 188.221 125.186C188.062 125.358 187.983 125.594 187.983 125.892C187.983 126.3 188.134 126.608 188.435 126.817C188.74 127.022 189.126 127.125 189.594 127.125ZM196.229 117.818V128H195.056V117.818H196.229ZM202.475 117.818H203.946L207.407 126.27H207.526L210.986 117.818H212.458V128H211.304V120.264H211.205L208.023 128H206.91L203.728 120.264H203.628V128H202.475V117.818ZM214.771 128V120.364H215.944V128H214.771ZM215.367 119.091C215.139 119.091 214.942 119.013 214.776 118.857C214.613 118.701 214.532 118.514 214.532 118.295C214.532 118.077 214.613 117.889 214.776 117.734C214.942 117.578 215.139 117.5 215.367 117.5C215.596 117.5 215.792 117.578 215.954 117.734C216.12 117.889 216.203 118.077 216.203 118.295C216.203 118.514 216.12 118.701 215.954 118.857C215.792 119.013 215.596 119.091 215.367 119.091ZM223.502 122.074L222.448 122.372C222.382 122.196 222.284 122.026 222.155 121.86C222.029 121.691 221.857 121.552 221.638 121.442C221.419 121.333 221.139 121.278 220.798 121.278C220.33 121.278 219.941 121.386 219.629 121.602C219.321 121.814 219.167 122.084 219.167 122.412C219.167 122.704 219.273 122.934 219.485 123.103C219.697 123.272 220.029 123.413 220.48 123.526L221.613 123.804C222.296 123.97 222.805 124.223 223.139 124.565C223.474 124.903 223.641 125.339 223.641 125.872C223.641 126.31 223.515 126.701 223.264 127.045C223.015 127.39 222.667 127.662 222.22 127.861C221.772 128.06 221.252 128.159 220.658 128.159C219.88 128.159 219.235 127.99 218.725 127.652C218.214 127.314 217.891 126.82 217.755 126.17L218.869 125.892C218.975 126.303 219.175 126.611 219.47 126.817C219.769 127.022 220.158 127.125 220.639 127.125C221.185 127.125 221.62 127.009 221.941 126.777C222.266 126.542 222.428 126.26 222.428 125.932C222.428 125.667 222.336 125.445 222.15 125.266C221.964 125.083 221.679 124.947 221.295 124.858L220.022 124.56C219.323 124.394 218.809 124.137 218.481 123.789C218.156 123.438 217.994 122.999 217.994 122.472C217.994 122.041 218.115 121.66 218.357 121.328C218.602 120.997 218.935 120.737 219.356 120.548C219.78 120.359 220.261 120.264 220.798 120.264C221.553 120.264 222.147 120.43 222.578 120.761C223.012 121.093 223.32 121.53 223.502 122.074ZM230.817 122.074L229.763 122.372C229.696 122.196 229.599 122.026 229.469 121.86C229.343 121.691 229.171 121.552 228.952 121.442C228.734 121.333 228.454 121.278 228.112 121.278C227.645 121.278 227.255 121.386 226.944 121.602C226.636 121.814 226.481 122.084 226.481 122.412C226.481 122.704 226.588 122.934 226.8 123.103C227.012 123.272 227.343 123.413 227.794 123.526L228.927 123.804C229.61 123.97 230.119 124.223 230.454 124.565C230.789 124.903 230.956 125.339 230.956 125.872C230.956 126.31 230.83 126.701 230.578 127.045C230.329 127.39 229.981 127.662 229.534 127.861C229.087 128.06 228.566 128.159 227.973 128.159C227.194 128.159 226.549 127.99 226.039 127.652C225.529 127.314 225.205 126.82 225.07 126.17L226.183 125.892C226.289 126.303 226.49 126.611 226.785 126.817C227.083 127.022 227.472 127.125 227.953 127.125C228.5 127.125 228.934 127.009 229.256 126.777C229.58 126.542 229.743 126.26 229.743 125.932C229.743 125.667 229.65 125.445 229.464 125.266C229.279 125.083 228.994 124.947 228.609 124.858L227.337 124.56C226.637 124.394 226.124 124.137 225.795 123.789C225.471 123.438 225.308 122.999 225.308 122.472C225.308 122.041 225.429 121.66 225.671 121.328C225.916 120.997 226.249 120.737 226.67 120.548C227.095 120.359 227.575 120.264 228.112 120.264C228.868 120.264 229.461 120.43 229.892 120.761C230.326 121.093 230.634 121.53 230.817 122.074ZM232.722 128V120.364H233.895V128H232.722ZM233.319 119.091C233.09 119.091 232.893 119.013 232.727 118.857C232.565 118.701 232.483 118.514 232.483 118.295C232.483 118.077 232.565 117.889 232.727 117.734C232.893 117.578 233.09 117.5 233.319 117.5C233.547 117.5 233.743 117.578 233.905 117.734C234.071 117.889 234.154 118.077 234.154 118.295C234.154 118.514 234.071 118.701 233.905 118.857C233.743 119.013 233.547 119.091 233.319 119.091ZM237.218 123.406V128H236.044V120.364H237.178V121.557H237.277C237.456 121.169 237.728 120.857 238.093 120.622C238.457 120.384 238.928 120.264 239.505 120.264C240.022 120.264 240.474 120.37 240.862 120.582C241.25 120.791 241.551 121.109 241.767 121.537C241.982 121.961 242.09 122.498 242.09 123.148V128H240.916V123.227C240.916 122.627 240.761 122.16 240.449 121.825C240.138 121.487 239.71 121.318 239.166 121.318C238.792 121.318 238.457 121.399 238.162 121.562C237.871 121.724 237.64 121.961 237.471 122.273C237.302 122.584 237.218 122.962 237.218 123.406ZM247.316 131.023C246.749 131.023 246.262 130.95 245.855 130.804C245.447 130.661 245.107 130.473 244.835 130.237C244.567 130.005 244.353 129.757 244.194 129.491L245.129 128.835C245.235 128.974 245.369 129.134 245.531 129.312C245.694 129.495 245.916 129.652 246.198 129.785C246.483 129.921 246.855 129.989 247.316 129.989C247.933 129.989 248.441 129.839 248.842 129.541C249.243 129.243 249.444 128.776 249.444 128.139V126.588H249.345C249.258 126.727 249.136 126.9 248.977 127.105C248.821 127.307 248.596 127.488 248.301 127.647C248.009 127.803 247.614 127.881 247.117 127.881C246.501 127.881 245.947 127.735 245.457 127.443C244.97 127.152 244.583 126.727 244.298 126.17C244.017 125.614 243.876 124.937 243.876 124.142C243.876 123.36 244.013 122.679 244.288 122.099C244.564 121.515 244.946 121.065 245.437 120.746C245.927 120.425 246.494 120.264 247.137 120.264C247.634 120.264 248.029 120.347 248.32 120.513C248.615 120.675 248.841 120.861 248.997 121.07C249.156 121.275 249.278 121.444 249.364 121.577H249.484V120.364H250.617V128.219C250.617 128.875 250.468 129.409 250.17 129.82C249.875 130.234 249.477 130.537 248.977 130.729C248.48 130.925 247.926 131.023 247.316 131.023ZM247.276 126.827C247.747 126.827 248.145 126.719 248.47 126.504C248.794 126.288 249.041 125.978 249.21 125.574C249.379 125.17 249.464 124.686 249.464 124.122C249.464 123.572 249.381 123.086 249.215 122.665C249.05 122.245 248.804 121.915 248.48 121.676C248.155 121.437 247.754 121.318 247.276 121.318C246.779 121.318 246.365 121.444 246.033 121.696C245.705 121.948 245.458 122.286 245.293 122.71C245.13 123.134 245.049 123.605 245.049 124.122C245.049 124.652 245.132 125.121 245.298 125.529C245.467 125.933 245.715 126.252 246.043 126.484C246.375 126.712 246.786 126.827 247.276 126.827ZM260.004 128H256.862V117.818H260.143C261.131 117.818 261.976 118.022 262.678 118.43C263.381 118.834 263.92 119.416 264.294 120.175C264.669 120.93 264.856 121.835 264.856 122.889C264.856 123.95 264.667 124.863 264.289 125.629C263.911 126.391 263.361 126.978 262.639 127.388C261.916 127.796 261.038 128 260.004 128ZM258.095 126.906H259.924C260.766 126.906 261.464 126.744 262.017 126.419C262.571 126.094 262.983 125.632 263.255 125.032C263.527 124.432 263.663 123.718 263.663 122.889C263.663 122.067 263.529 121.36 263.26 120.766C262.992 120.17 262.591 119.712 262.057 119.394C261.523 119.073 260.859 118.912 260.063 118.912H258.095V126.906ZM269.012 128.179C268.528 128.179 268.089 128.088 267.695 127.906C267.3 127.72 266.987 127.453 266.755 127.105C266.523 126.754 266.407 126.33 266.407 125.832C266.407 125.395 266.493 125.04 266.666 124.768C266.838 124.493 267.068 124.278 267.357 124.122C267.645 123.966 267.963 123.85 268.311 123.774C268.663 123.695 269.015 123.632 269.37 123.585C269.834 123.526 270.21 123.481 270.499 123.451C270.79 123.418 271.002 123.363 271.135 123.287C271.271 123.211 271.339 123.078 271.339 122.889V122.849C271.339 122.359 271.205 121.978 270.936 121.706C270.671 121.434 270.268 121.298 269.728 121.298C269.168 121.298 268.729 121.421 268.411 121.666C268.092 121.911 267.869 122.173 267.739 122.452L266.626 122.054C266.825 121.59 267.09 121.229 267.421 120.97C267.756 120.708 268.121 120.526 268.515 120.423C268.913 120.317 269.304 120.264 269.688 120.264C269.934 120.264 270.215 120.294 270.533 120.354C270.855 120.41 271.165 120.528 271.463 120.707C271.765 120.886 272.015 121.156 272.214 121.517C272.413 121.878 272.512 122.362 272.512 122.969V128H271.339V126.966H271.279C271.2 127.132 271.067 127.309 270.882 127.498C270.696 127.687 270.449 127.848 270.141 127.98C269.832 128.113 269.456 128.179 269.012 128.179ZM269.191 127.125C269.655 127.125 270.046 127.034 270.364 126.852C270.686 126.669 270.928 126.434 271.09 126.146C271.256 125.857 271.339 125.554 271.339 125.236V124.162C271.289 124.222 271.18 124.276 271.011 124.326C270.845 124.372 270.653 124.414 270.434 124.45C270.219 124.483 270.008 124.513 269.803 124.54C269.6 124.563 269.436 124.583 269.31 124.599C269.006 124.639 268.721 124.704 268.455 124.793C268.194 124.879 267.981 125.01 267.819 125.186C267.66 125.358 267.58 125.594 267.58 125.892C267.58 126.3 267.731 126.608 268.033 126.817C268.338 127.022 268.724 127.125 269.191 127.125ZM277.975 120.364V121.358H274.017V120.364H277.975ZM275.171 118.534H276.344V125.812C276.344 126.144 276.392 126.393 276.488 126.558C276.588 126.721 276.714 126.83 276.866 126.886C277.022 126.939 277.186 126.966 277.358 126.966C277.488 126.966 277.594 126.959 277.676 126.946C277.759 126.929 277.826 126.916 277.875 126.906L278.114 127.96C278.034 127.99 277.923 128.02 277.781 128.05C277.638 128.083 277.458 128.099 277.239 128.099C276.907 128.099 276.583 128.028 276.264 127.886C275.95 127.743 275.688 127.526 275.479 127.234C275.273 126.943 275.171 126.575 275.171 126.131V118.534ZM281.987 128.179C281.503 128.179 281.064 128.088 280.669 127.906C280.275 127.72 279.962 127.453 279.73 127.105C279.498 126.754 279.382 126.33 279.382 125.832C279.382 125.395 279.468 125.04 279.64 124.768C279.813 124.493 280.043 124.278 280.331 124.122C280.62 123.966 280.938 123.85 281.286 123.774C281.637 123.695 281.99 123.632 282.345 123.585C282.809 123.526 283.185 123.481 283.473 123.451C283.765 123.418 283.977 123.363 284.11 123.287C284.246 123.211 284.313 123.078 284.313 122.889V122.849C284.313 122.359 284.179 121.978 283.911 121.706C283.646 121.434 283.243 121.298 282.703 121.298C282.143 121.298 281.703 121.421 281.385 121.666C281.067 121.911 280.843 122.173 280.714 122.452L279.6 122.054C279.799 121.59 280.064 121.229 280.396 120.97C280.731 120.708 281.095 120.526 281.49 120.423C281.887 120.317 282.278 120.264 282.663 120.264C282.908 120.264 283.19 120.294 283.508 120.354C283.83 120.41 284.139 120.528 284.438 120.707C284.739 120.886 284.99 121.156 285.188 121.517C285.387 121.878 285.487 122.362 285.487 122.969V128H284.313V126.966H284.254C284.174 127.132 284.042 127.309 283.856 127.498C283.671 127.687 283.424 127.848 283.115 127.98C282.807 128.113 282.431 128.179 281.987 128.179ZM282.166 127.125C282.63 127.125 283.021 127.034 283.339 126.852C283.661 126.669 283.903 126.434 284.065 126.146C284.231 125.857 284.313 125.554 284.313 125.236V124.162C284.264 124.222 284.154 124.276 283.985 124.326C283.82 124.372 283.627 124.414 283.409 124.45C283.193 124.483 282.983 124.513 282.777 124.54C282.575 124.563 282.411 124.583 282.285 124.599C281.98 124.639 281.695 124.704 281.43 124.793C281.168 124.879 280.956 125.01 280.794 125.186C280.635 125.358 280.555 125.594 280.555 125.892C280.555 126.3 280.706 126.608 281.007 126.817C281.312 127.022 281.698 127.125 282.166 127.125Z" fill="#54595E"/>
<g clip-path="url(#clip2_2268_23001)">
<path fill-rule="evenodd" clip-rule="evenodd" d="M295.985 120.75C295.985 120.684 295.958 120.62 295.912 120.573C295.865 120.526 295.801 120.5 295.735 120.5H292.417C292.218 120.5 292.027 120.579 291.886 120.72C291.746 120.86 291.667 121.051 291.667 121.25V126.25C291.667 126.449 291.746 126.64 291.886 126.78C292.027 126.921 292.218 127 292.417 127H297.417C297.616 127 297.806 126.921 297.947 126.78C298.088 126.64 298.167 126.449 298.167 126.25V122.932C298.167 122.866 298.14 122.802 298.094 122.755C298.047 122.708 297.983 122.682 297.917 122.682C297.85 122.682 297.787 122.708 297.74 122.755C297.693 122.802 297.667 122.866 297.667 122.932V126.25C297.667 126.316 297.64 126.38 297.594 126.427C297.547 126.474 297.483 126.5 297.417 126.5H292.417C292.35 126.5 292.287 126.474 292.24 126.427C292.193 126.38 292.167 126.316 292.167 126.25V121.25C292.167 121.184 292.193 121.12 292.24 121.073C292.287 121.026 292.35 121 292.417 121H295.735C295.801 121 295.865 120.974 295.912 120.927C295.958 120.88 295.985 120.816 295.985 120.75Z" fill="#ABB5BE" stroke="#ABB5BE" stroke-width="0.5"/>
<path fill-rule="evenodd" clip-rule="evenodd" d="M299.667 119.25C299.667 119.184 299.64 119.12 299.593 119.073C299.547 119.026 299.483 119 299.417 119H296.917C296.85 119 296.787 119.026 296.74 119.073C296.693 119.12 296.667 119.184 296.667 119.25C296.667 119.316 296.693 119.38 296.74 119.427C296.787 119.474 296.85 119.5 296.917 119.5H298.813L294.74 123.573C294.716 123.596 294.698 123.624 294.685 123.654C294.673 123.685 294.666 123.717 294.666 123.75C294.666 123.783 294.673 123.815 294.685 123.846C294.698 123.876 294.716 123.904 294.74 123.927C294.763 123.95 294.791 123.969 294.821 123.981C294.851 123.994 294.884 124 294.917 124C294.95 124 294.982 123.994 295.012 123.981C295.043 123.969 295.07 123.95 295.094 123.927L299.167 119.854V121.75C299.167 121.816 299.193 121.88 299.24 121.927C299.287 121.974 299.35 122 299.417 122C299.483 122 299.547 121.974 299.593 121.927C299.64 121.88 299.667 121.816 299.667 121.75V119.25Z" fill="#ABB5BE" stroke="#ABB5BE" stroke-width="0.5"/>
</g>
<rect x="403" y="61" width="393" height="98" fill="white"/>
<g clip-path="url(#clip3_2268_23001)">
<path d="M509.167 128.5H526.667C527.993 128.5 529.265 127.973 530.202 127.036C531.14 126.098 531.667 124.826 531.667 123.5C532.993 123.5 534.265 122.973 535.202 122.036C536.14 121.098 536.667 119.826 536.667 118.5V93.5C536.667 92.1739 536.14 90.9021 535.202 89.9645C534.265 89.0268 532.993 88.5 531.667 88.5H514.167C512.841 88.5 511.569 89.0268 510.631 89.9645C509.694 90.9021 509.167 92.1739 509.167 93.5C507.841 93.5 506.569 94.0268 505.631 94.9645C504.694 95.9021 504.167 97.1739 504.167 98.5V123.5C504.167 124.826 504.694 126.098 505.631 127.036C506.569 127.973 507.841 128.5 509.167 128.5V128.5ZM509.167 96V118.5C509.167 119.826 509.694 121.098 510.631 122.036C511.569 122.973 512.841 123.5 514.167 123.5H529.167C529.167 124.163 528.903 124.799 528.435 125.268C527.966 125.737 527.33 126 526.667 126H509.167C508.504 126 507.868 125.737 507.399 125.268C506.93 124.799 506.667 124.163 506.667 123.5V98.5C506.667 97.837 506.93 97.2011 507.399 96.7322C507.868 96.2634 508.504 96 509.167 96ZM534.167 118.5C534.167 119.163 533.903 119.799 533.435 120.268C532.966 120.737 532.33 121 531.667 121H514.167C513.504 121 512.868 120.737 512.399 120.268C511.93 119.799 511.667 119.163 511.667 118.5V93.5C511.667 92.837 511.93 92.2011 512.399 91.7322C512.868 91.2634 513.504 91 514.167 91H531.667C532.33 91 532.966 91.2634 533.435 91.7322C533.903 92.2011 534.167 92.837 534.167 93.5V118.5Z" fill="#C72C41"/>
</g>
<path d="M562.188 86.6364V107H557.883V90.723H557.764L553.1 93.6463V89.8281L558.142 86.6364H562.188ZM575.013 107.447C573.302 107.441 571.831 107.02 570.598 106.185C569.372 105.349 568.427 104.14 567.764 102.555C567.108 100.971 566.783 99.0653 566.79 96.8381C566.79 94.6174 567.118 92.7249 567.774 91.1605C568.437 89.5961 569.381 88.4062 570.608 87.5909C571.841 86.7689 573.309 86.358 575.013 86.358C576.716 86.358 578.181 86.7689 579.408 87.5909C580.64 88.4129 581.588 89.6061 582.251 91.1705C582.914 92.7282 583.242 94.6174 583.236 96.8381C583.236 99.072 582.904 100.981 582.241 102.565C581.585 104.15 580.644 105.359 579.417 106.195C578.191 107.03 576.723 107.447 575.013 107.447ZM575.013 103.878C576.179 103.878 577.111 103.291 577.807 102.118C578.503 100.945 578.847 99.1847 578.841 96.8381C578.841 95.2936 578.682 94.0076 578.363 92.9801C578.052 91.9527 577.608 91.1804 577.031 90.6634C576.461 90.1463 575.788 89.8878 575.013 89.8878C573.853 89.8878 572.925 90.4678 572.229 91.6278C571.533 92.7879 571.181 94.5246 571.175 96.8381C571.175 98.4025 571.33 99.7083 571.642 100.756C571.96 101.796 572.408 102.579 572.984 103.102C573.561 103.619 574.237 103.878 575.013 103.878Z" fill="#54595E"/>
<path d="M552.563 118.912V117.818H560.199V118.912H556.997V128H555.764V118.912H552.563ZM563.938 128.159C563.248 128.159 562.643 127.995 562.123 127.667C561.606 127.339 561.202 126.88 560.91 126.29C560.622 125.7 560.477 125.01 560.477 124.222C560.477 123.426 560.622 122.732 560.91 122.138C561.202 121.545 561.606 121.085 562.123 120.756C562.643 120.428 563.248 120.264 563.938 120.264C564.627 120.264 565.23 120.428 565.747 120.756C566.268 121.085 566.672 121.545 566.96 122.138C567.252 122.732 567.398 123.426 567.398 124.222C567.398 125.01 567.252 125.7 566.96 126.29C566.672 126.88 566.268 127.339 565.747 127.667C565.23 127.995 564.627 128.159 563.938 128.159ZM563.938 127.105C564.461 127.105 564.892 126.971 565.23 126.702C565.568 126.434 565.819 126.081 565.981 125.643C566.143 125.206 566.225 124.732 566.225 124.222C566.225 123.711 566.143 123.236 565.981 122.795C565.819 122.354 565.568 121.998 565.23 121.726C564.892 121.454 564.461 121.318 563.938 121.318C563.414 121.318 562.983 121.454 562.645 121.726C562.307 121.998 562.057 122.354 561.894 122.795C561.732 123.236 561.651 123.711 561.651 124.222C561.651 124.732 561.732 125.206 561.894 125.643C562.057 126.081 562.307 126.434 562.645 126.702C562.983 126.971 563.414 127.105 563.938 127.105ZM572.51 120.364V121.358H568.552V120.364H572.51ZM569.706 118.534H570.879V125.812C570.879 126.144 570.927 126.393 571.023 126.558C571.123 126.721 571.249 126.83 571.401 126.886C571.557 126.939 571.721 126.966 571.893 126.966C572.023 126.966 572.129 126.959 572.212 126.946C572.294 126.929 572.361 126.916 572.41 126.906L572.649 127.96C572.57 127.99 572.459 128.02 572.316 128.05C572.173 128.083 571.993 128.099 571.774 128.099C571.443 128.099 571.118 128.028 570.8 127.886C570.485 127.743 570.223 127.526 570.014 127.234C569.809 126.943 569.706 126.575 569.706 126.131V118.534ZM576.522 128.179C576.038 128.179 575.599 128.088 575.204 127.906C574.81 127.72 574.497 127.453 574.265 127.105C574.033 126.754 573.917 126.33 573.917 125.832C573.917 125.395 574.003 125.04 574.175 124.768C574.348 124.493 574.578 124.278 574.866 124.122C575.155 123.966 575.473 123.85 575.821 123.774C576.172 123.695 576.525 123.632 576.88 123.585C577.344 123.526 577.72 123.481 578.008 123.451C578.3 123.418 578.512 123.363 578.645 123.287C578.781 123.211 578.849 123.078 578.849 122.889V122.849C578.849 122.359 578.714 121.978 578.446 121.706C578.181 121.434 577.778 121.298 577.238 121.298C576.678 121.298 576.239 121.421 575.92 121.666C575.602 121.911 575.378 122.173 575.249 122.452L574.136 122.054C574.334 121.59 574.6 121.229 574.931 120.97C575.266 120.708 575.63 120.526 576.025 120.423C576.423 120.317 576.814 120.264 577.198 120.264C577.443 120.264 577.725 120.294 578.043 120.354C578.365 120.41 578.675 120.528 578.973 120.707C579.275 120.886 579.525 121.156 579.724 121.517C579.923 121.878 580.022 122.362 580.022 122.969V128H578.849V126.966H578.789C578.709 127.132 578.577 127.309 578.391 127.498C578.206 127.687 577.959 127.848 577.651 127.98C577.342 128.113 576.966 128.179 576.522 128.179ZM576.701 127.125C577.165 127.125 577.556 127.034 577.874 126.852C578.196 126.669 578.438 126.434 578.6 126.146C578.766 125.857 578.849 125.554 578.849 125.236V124.162C578.799 124.222 578.69 124.276 578.521 124.326C578.355 124.372 578.163 124.414 577.944 124.45C577.728 124.483 577.518 124.513 577.312 124.54C577.11 124.563 576.946 124.583 576.82 124.599C576.515 124.639 576.23 124.704 575.965 124.793C575.703 124.879 575.491 125.01 575.329 125.186C575.17 125.358 575.09 125.594 575.09 125.892C575.09 126.3 575.241 126.608 575.543 126.817C575.847 127.022 576.234 127.125 576.701 127.125ZM583.337 117.818V128H582.163V117.818H583.337ZM592.724 128H589.582V117.818H592.864C593.851 117.818 594.696 118.022 595.399 118.43C596.102 118.834 596.64 119.416 597.015 120.175C597.389 120.93 597.577 121.835 597.577 122.889C597.577 123.95 597.388 124.863 597.01 125.629C596.632 126.391 596.082 126.978 595.359 127.388C594.637 127.796 593.758 128 592.724 128ZM590.815 126.906H592.645C593.487 126.906 594.184 126.744 594.738 126.419C595.291 126.094 595.704 125.632 595.976 125.032C596.248 124.432 596.383 123.718 596.383 122.889C596.383 122.067 596.249 121.36 595.981 120.766C595.712 120.17 595.311 119.712 594.778 119.394C594.244 119.073 593.579 118.912 592.784 118.912H590.815V126.906ZM604.298 124.878V120.364H605.472V128H604.298V126.707H604.219C604.04 127.095 603.761 127.425 603.383 127.697C603.006 127.965 602.528 128.099 601.952 128.099C601.474 128.099 601.05 127.995 600.679 127.786C600.308 127.574 600.016 127.256 599.804 126.832C599.592 126.404 599.486 125.866 599.486 125.216V120.364H600.659V125.136C600.659 125.693 600.815 126.137 601.126 126.469C601.441 126.8 601.842 126.966 602.329 126.966C602.621 126.966 602.918 126.891 603.219 126.742C603.524 126.593 603.78 126.364 603.985 126.056C604.194 125.748 604.298 125.355 604.298 124.878ZM607.62 130.864V120.364H608.754V121.577H608.893C608.979 121.444 609.099 121.275 609.251 121.07C609.407 120.861 609.629 120.675 609.917 120.513C610.209 120.347 610.603 120.264 611.101 120.264C611.744 120.264 612.31 120.425 612.801 120.746C613.291 121.068 613.674 121.524 613.949 122.114C614.224 122.704 614.362 123.4 614.362 124.202C614.362 125.01 614.224 125.711 613.949 126.305C613.674 126.895 613.293 127.352 612.806 127.677C612.319 127.998 611.757 128.159 611.12 128.159C610.63 128.159 610.237 128.078 609.942 127.915C609.647 127.75 609.42 127.562 609.261 127.354C609.102 127.142 608.979 126.966 608.893 126.827H608.794V130.864H607.62ZM608.774 124.182C608.774 124.759 608.858 125.267 609.027 125.708C609.196 126.146 609.443 126.489 609.768 126.737C610.093 126.982 610.491 127.105 610.961 127.105C611.452 127.105 611.861 126.976 612.189 126.717C612.521 126.455 612.769 126.104 612.935 125.663C613.104 125.219 613.189 124.725 613.189 124.182C613.189 123.645 613.106 123.161 612.94 122.73C612.778 122.296 612.531 121.953 612.199 121.701C611.871 121.446 611.459 121.318 610.961 121.318C610.484 121.318 610.083 121.439 609.758 121.681C609.433 121.92 609.188 122.254 609.022 122.685C608.857 123.113 608.774 123.612 608.774 124.182ZM617.325 117.818V128H616.152V117.818H617.325ZM619.474 128V120.364H620.647V128H619.474ZM620.071 119.091C619.842 119.091 619.645 119.013 619.479 118.857C619.317 118.701 619.235 118.514 619.235 118.295C619.235 118.077 619.317 117.889 619.479 117.734C619.645 117.578 619.842 117.5 620.071 117.5C620.299 117.5 620.495 117.578 620.657 117.734C620.823 117.889 620.906 118.077 620.906 118.295C620.906 118.514 620.823 118.701 620.657 118.857C620.495 119.013 620.299 119.091 620.071 119.091ZM625.899 128.159C625.183 128.159 624.566 127.99 624.049 127.652C623.532 127.314 623.134 126.848 622.856 126.255C622.578 125.662 622.438 124.984 622.438 124.222C622.438 123.446 622.581 122.762 622.866 122.168C623.154 121.572 623.555 121.106 624.069 120.771C624.586 120.433 625.189 120.264 625.879 120.264C626.416 120.264 626.899 120.364 627.33 120.562C627.761 120.761 628.114 121.04 628.389 121.398C628.664 121.756 628.835 122.173 628.901 122.651H627.728C627.639 122.303 627.44 121.994 627.132 121.726C626.827 121.454 626.416 121.318 625.899 121.318C625.441 121.318 625.04 121.437 624.695 121.676C624.354 121.911 624.087 122.245 623.895 122.675C623.706 123.103 623.612 123.605 623.612 124.182C623.612 124.772 623.704 125.286 623.89 125.723C624.079 126.161 624.344 126.5 624.685 126.742C625.03 126.984 625.435 127.105 625.899 127.105C626.203 127.105 626.48 127.052 626.729 126.946C626.977 126.84 627.188 126.688 627.36 126.489C627.533 126.29 627.655 126.051 627.728 125.773H628.901C628.835 126.223 628.671 126.629 628.409 126.991C628.151 127.349 627.808 127.634 627.38 127.846C626.956 128.055 626.462 128.159 625.899 128.159ZM632.864 128.179C632.38 128.179 631.941 128.088 631.546 127.906C631.152 127.72 630.839 127.453 630.607 127.105C630.375 126.754 630.259 126.33 630.259 125.832C630.259 125.395 630.345 125.04 630.517 124.768C630.69 124.493 630.92 124.278 631.208 124.122C631.497 123.966 631.815 123.85 632.163 123.774C632.514 123.695 632.867 123.632 633.222 123.585C633.686 123.526 634.062 123.481 634.35 123.451C634.642 123.418 634.854 123.363 634.987 123.287C635.123 123.211 635.19 123.078 635.19 122.889V122.849C635.19 122.359 635.056 121.978 634.788 121.706C634.523 121.434 634.12 121.298 633.58 121.298C633.02 121.298 632.58 121.421 632.262 121.666C631.944 121.911 631.72 122.173 631.591 122.452L630.477 122.054C630.676 121.59 630.941 121.229 631.273 120.97C631.608 120.708 631.972 120.526 632.367 120.423C632.764 120.317 633.155 120.264 633.54 120.264C633.785 120.264 634.067 120.294 634.385 120.354C634.707 120.41 635.016 120.528 635.315 120.707C635.616 120.886 635.867 121.156 636.065 121.517C636.264 121.878 636.364 122.362 636.364 122.969V128H635.19V126.966H635.131C635.051 127.132 634.919 127.309 634.733 127.498C634.547 127.687 634.301 127.848 633.992 127.98C633.684 128.113 633.308 128.179 632.864 128.179ZM633.043 127.125C633.507 127.125 633.898 127.034 634.216 126.852C634.538 126.669 634.779 126.434 634.942 126.146C635.108 125.857 635.19 125.554 635.19 125.236V124.162C635.141 124.222 635.031 124.276 634.862 124.326C634.697 124.372 634.504 124.414 634.286 124.45C634.07 124.483 633.86 124.513 633.654 124.54C633.452 124.563 633.288 124.583 633.162 124.599C632.857 124.639 632.572 124.704 632.307 124.793C632.045 124.879 631.833 125.01 631.671 125.186C631.511 125.358 631.432 125.594 631.432 125.892C631.432 126.3 631.583 126.608 631.884 126.817C632.189 127.022 632.575 127.125 633.043 127.125ZM641.826 120.364V121.358H637.869V120.364H641.826ZM639.022 118.534H640.196V125.812C640.196 126.144 640.244 126.393 640.34 126.558C640.439 126.721 640.565 126.83 640.718 126.886C640.873 126.939 641.037 126.966 641.21 126.966C641.339 126.966 641.445 126.959 641.528 126.946C641.611 126.929 641.677 126.916 641.727 126.906L641.965 127.96C641.886 127.99 641.775 128.02 641.632 128.05C641.49 128.083 641.309 128.099 641.09 128.099C640.759 128.099 640.434 128.028 640.116 127.886C639.801 127.743 639.539 127.526 639.331 127.234C639.125 126.943 639.022 126.575 639.022 126.131V118.534ZM646.711 128.159C645.975 128.159 645.34 127.997 644.807 127.672C644.276 127.344 643.867 126.886 643.579 126.3C643.294 125.71 643.151 125.024 643.151 124.241C643.151 123.459 643.294 122.77 643.579 122.173C643.867 121.573 644.268 121.106 644.782 120.771C645.299 120.433 645.902 120.264 646.592 120.264C646.989 120.264 647.382 120.33 647.77 120.463C648.158 120.596 648.511 120.811 648.829 121.109C649.147 121.404 649.401 121.795 649.589 122.283C649.778 122.77 649.873 123.37 649.873 124.082V124.58H643.986V123.565H648.68C648.68 123.134 648.593 122.75 648.421 122.412C648.252 122.074 648.01 121.807 647.695 121.612C647.384 121.416 647.016 121.318 646.592 121.318C646.124 121.318 645.72 121.434 645.378 121.666C645.04 121.895 644.78 122.193 644.598 122.561C644.416 122.929 644.325 123.323 644.325 123.744V124.42C644.325 124.997 644.424 125.486 644.623 125.887C644.825 126.285 645.105 126.588 645.463 126.797C645.821 127.002 646.237 127.105 646.711 127.105C647.019 127.105 647.298 127.062 647.546 126.976C647.798 126.886 648.015 126.754 648.197 126.578C648.38 126.399 648.521 126.177 648.62 125.912L649.753 126.23C649.634 126.615 649.434 126.953 649.152 127.244C648.87 127.533 648.522 127.758 648.108 127.92C647.694 128.08 647.228 128.159 646.711 128.159ZM658.896 128H655.754V117.818H659.035C660.023 117.818 660.868 118.022 661.571 118.43C662.274 118.834 662.812 119.416 663.187 120.175C663.561 120.93 663.749 121.835 663.749 122.889C663.749 123.95 663.56 124.863 663.182 125.629C662.804 126.391 662.254 126.978 661.531 127.388C660.809 127.796 659.93 128 658.896 128ZM656.987 126.906H658.817C659.659 126.906 660.356 126.744 660.91 126.419C661.463 126.094 661.876 125.632 662.148 125.032C662.419 124.432 662.555 123.718 662.555 122.889C662.555 122.067 662.421 121.36 662.153 120.766C661.884 120.17 661.483 119.712 660.95 119.394C660.416 119.073 659.751 118.912 658.956 118.912H656.987V126.906ZM667.905 128.179C667.421 128.179 666.982 128.088 666.587 127.906C666.193 127.72 665.88 127.453 665.648 127.105C665.416 126.754 665.3 126.33 665.3 125.832C665.3 125.395 665.386 125.04 665.558 124.768C665.731 124.493 665.961 124.278 666.249 124.122C666.538 123.966 666.856 123.85 667.204 123.774C667.555 123.695 667.908 123.632 668.263 123.585C668.727 123.526 669.103 123.481 669.391 123.451C669.683 123.418 669.895 123.363 670.028 123.287C670.164 123.211 670.231 123.078 670.231 122.889V122.849C670.231 122.359 670.097 121.978 669.829 121.706C669.564 121.434 669.161 121.298 668.621 121.298C668.061 121.298 667.621 121.421 667.303 121.666C666.985 121.911 666.761 122.173 666.632 122.452L665.518 122.054C665.717 121.59 665.982 121.229 666.314 120.97C666.649 120.708 667.013 120.526 667.408 120.423C667.805 120.317 668.196 120.264 668.581 120.264C668.826 120.264 669.108 120.294 669.426 120.354C669.748 120.41 670.057 120.528 670.356 120.707C670.657 120.886 670.908 121.156 671.106 121.517C671.305 121.878 671.405 122.362 671.405 122.969V128H670.231V126.966H670.172C670.092 127.132 669.96 127.309 669.774 127.498C669.588 127.687 669.342 127.848 669.033 127.98C668.725 128.113 668.349 128.179 667.905 128.179ZM668.084 127.125C668.548 127.125 668.939 127.034 669.257 126.852C669.579 126.669 669.82 126.434 669.983 126.146C670.149 125.857 670.231 125.554 670.231 125.236V124.162C670.182 124.222 670.072 124.276 669.903 124.326C669.738 124.372 669.545 124.414 669.327 124.45C669.111 124.483 668.901 124.513 668.695 124.54C668.493 124.563 668.329 124.583 668.203 124.599C667.898 124.639 667.613 124.704 667.348 124.793C667.086 124.879 666.874 125.01 666.712 125.186C666.552 125.358 666.473 125.594 666.473 125.892C666.473 126.3 666.624 126.608 666.925 126.817C667.23 127.022 667.616 127.125 668.084 127.125ZM676.867 120.364V121.358H672.91V120.364H676.867ZM674.063 118.534H675.237V125.812C675.237 126.144 675.285 126.393 675.381 126.558C675.48 126.721 675.606 126.83 675.759 126.886C675.914 126.939 676.078 126.966 676.251 126.966C676.38 126.966 676.486 126.959 676.569 126.946C676.652 126.929 676.718 126.916 676.768 126.906L677.007 127.96C676.927 127.99 676.816 128.02 676.673 128.05C676.531 128.083 676.35 128.099 676.132 128.099C675.8 128.099 675.475 128.028 675.157 127.886C674.842 127.743 674.58 127.526 674.372 127.234C674.166 126.943 674.063 126.575 674.063 126.131V118.534ZM680.879 128.179C680.395 128.179 679.956 128.088 679.562 127.906C679.167 127.72 678.854 127.453 678.622 127.105C678.39 126.754 678.274 126.33 678.274 125.832C678.274 125.395 678.36 125.04 678.533 124.768C678.705 124.493 678.935 124.278 679.224 124.122C679.512 123.966 679.83 123.85 680.178 123.774C680.53 123.695 680.883 123.632 681.237 123.585C681.701 123.526 682.078 123.481 682.366 123.451C682.658 123.418 682.87 123.363 683.002 123.287C683.138 123.211 683.206 123.078 683.206 122.889V122.849C683.206 122.359 683.072 121.978 682.803 121.706C682.538 121.434 682.136 121.298 681.595 121.298C681.035 121.298 680.596 121.421 680.278 121.666C679.96 121.911 679.736 122.173 679.607 122.452L678.493 122.054C678.692 121.59 678.957 121.229 679.288 120.97C679.623 120.708 679.988 120.526 680.382 120.423C680.78 120.317 681.171 120.264 681.556 120.264C681.801 120.264 682.082 120.294 682.401 120.354C682.722 120.41 683.032 120.528 683.33 120.707C683.632 120.886 683.882 121.156 684.081 121.517C684.28 121.878 684.379 122.362 684.379 122.969V128H683.206V126.966H683.146C683.067 127.132 682.934 127.309 682.749 127.498C682.563 127.687 682.316 127.848 682.008 127.98C681.7 128.113 681.324 128.179 680.879 128.179ZM681.058 127.125C681.522 127.125 681.913 127.034 682.232 126.852C682.553 126.669 682.795 126.434 682.957 126.146C683.123 125.857 683.206 125.554 683.206 125.236V124.162C683.156 124.222 683.047 124.276 682.878 124.326C682.712 124.372 682.52 124.414 682.301 124.45C682.086 124.483 681.875 124.513 681.67 124.54C681.468 124.563 681.304 124.583 681.178 124.599C680.873 124.639 680.588 124.704 680.323 124.793C680.061 124.879 679.849 125.01 679.686 125.186C679.527 125.358 679.448 125.594 679.448 125.892C679.448 126.3 679.598 126.608 679.9 126.817C680.205 127.022 680.591 127.125 681.058 127.125Z" fill="#54595E"/>
<g clip-path="url(#clip4_2268_23001)">
<path fill-rule="evenodd" clip-rule="evenodd" d="M694.985 120.75C694.985 120.684 694.958 120.62 694.912 120.573C694.865 120.526 694.801 120.5 694.735 120.5H691.417C691.218 120.5 691.027 120.579 690.886 120.72C690.746 120.86 690.667 121.051 690.667 121.25V126.25C690.667 126.449 690.746 126.64 690.886 126.78C691.027 126.921 691.218 127 691.417 127H696.417C696.616 127 696.806 126.921 696.947 126.78C697.088 126.64 697.167 126.449 697.167 126.25V122.932C697.167 122.866 697.14 122.802 697.094 122.755C697.047 122.708 696.983 122.682 696.917 122.682C696.85 122.682 696.787 122.708 696.74 122.755C696.693 122.802 696.667 122.866 696.667 122.932V126.25C696.667 126.316 696.64 126.38 696.594 126.427C696.547 126.474 696.483 126.5 696.417 126.5H691.417C691.35 126.5 691.287 126.474 691.24 126.427C691.193 126.38 691.167 126.316 691.167 126.25V121.25C691.167 121.184 691.193 121.12 691.24 121.073C691.287 121.026 691.35 121 691.417 121H694.735C694.801 121 694.865 120.974 694.912 120.927C694.958 120.88 694.985 120.816 694.985 120.75Z" fill="#ABB5BE" stroke="#ABB5BE" stroke-width="0.5"/>
<path fill-rule="evenodd" clip-rule="evenodd" d="M698.667 119.25C698.667 119.184 698.64 119.12 698.594 119.073C698.547 119.026 698.483 119 698.417 119H695.917C695.851 119 695.787 119.026 695.74 119.073C695.693 119.12 695.667 119.184 695.667 119.25C695.667 119.316 695.693 119.38 695.74 119.427C695.787 119.474 695.851 119.5 695.917 119.5H697.813L693.74 123.573C693.717 123.596 693.698 123.624 693.686 123.654C693.673 123.685 693.667 123.717 693.667 123.75C693.667 123.783 693.673 123.815 693.686 123.846C693.698 123.876 693.717 123.904 693.74 123.927C693.763 123.95 693.791 123.969 693.821 123.981C693.851 123.994 693.884 124 693.917 124C693.95 124 693.982 123.994 694.013 123.981C694.043 123.969 694.071 123.95 694.094 123.927L698.167 119.854V121.75C698.167 121.816 698.193 121.88 698.24 121.927C698.287 121.974 698.351 122 698.417 122C698.483 122 698.547 121.974 698.594 121.927C698.64 121.88 698.667 121.816 698.667 121.75V119.25Z" fill="#ABB5BE" stroke="#ABB5BE" stroke-width="0.5"/>
</g>
<mask id="path-16-inside-2_2268_23001" fill="white">
<path d="M796 61H1190V159H796V61Z"/>
</mask>
<path d="M796 61H1190V159H796V61Z" fill="white"/>
<path d="M797 159V61H795V159H797Z" fill="#DEE2E6" mask="url(#path-16-inside-2_2268_23001)"/>
<g clip-path="url(#clip5_2268_23001)">
<path d="M904.917 88.5C905.248 88.5 905.566 88.6317 905.801 88.8661C906.035 89.1005 906.167 89.4185 906.167 89.75V127.25C906.167 127.582 906.035 127.899 905.801 128.134C905.566 128.368 905.248 128.5 904.917 128.5C904.585 128.5 904.267 128.368 904.033 128.134C903.798 127.899 903.667 127.582 903.667 127.25V89.75C903.667 89.4185 903.798 89.1005 904.033 88.8661C904.267 88.6317 904.585 88.5 904.917 88.5V88.5ZM908.667 92.25C908.667 91.9185 908.798 91.6005 909.033 91.3661C909.267 91.1317 909.585 91 909.917 91H919.917C920.248 91 920.566 91.1317 920.801 91.3661C921.035 91.6005 921.167 91.9185 921.167 92.25V94.75C921.167 95.0815 921.035 95.3995 920.801 95.6339C920.566 95.8683 920.248 96 919.917 96H909.917C909.585 96 909.267 95.8683 909.033 95.6339C908.798 95.3995 908.667 95.0815 908.667 94.75V92.25ZM913.667 102.25C913.667 101.918 913.798 101.601 914.033 101.366C914.267 101.132 914.585 101 914.917 101H932.417C932.748 101 933.066 101.132 933.301 101.366C933.535 101.601 933.667 101.918 933.667 102.25V104.75C933.667 105.082 933.535 105.399 933.301 105.634C933.066 105.868 932.748 106 932.417 106H914.917C914.585 106 914.267 105.868 914.033 105.634C913.798 105.399 913.667 105.082 913.667 104.75V102.25ZM918.667 112.25C918.667 111.918 918.798 111.601 919.033 111.366C919.267 111.132 919.585 111 919.917 111H934.917C935.248 111 935.566 111.132 935.801 111.366C936.035 111.601 936.167 111.918 936.167 112.25V114.75C936.167 115.082 936.035 115.399 935.801 115.634C935.566 115.868 935.248 116 934.917 116H919.917C919.585 116 919.267 115.868 919.033 115.634C918.798 115.399 918.667 115.082 918.667 114.75V112.25ZM923.667 122.25C923.667 121.918 923.798 121.601 924.033 121.366C924.267 121.132 924.585 121 924.917 121H942.417C942.748 121 943.066 121.132 943.301 121.366C943.535 121.601 943.667 121.918 943.667 122.25V124.75C943.667 125.082 943.535 125.399 943.301 125.634C943.066 125.868 942.748 126 942.417 126H924.917C924.585 126 924.267 125.868 924.033 125.634C923.798 125.399 923.667 125.082 923.667 124.75V122.25Z" fill="#C72C41"/>
</g>
<path d="M963.116 107.278C961.631 107.278 960.308 107.023 959.148 106.513C957.995 105.996 957.084 105.286 956.414 104.385C955.751 103.477 955.41 102.429 955.39 101.243H959.725C959.752 101.74 959.914 102.178 960.212 102.555C960.517 102.927 960.922 103.215 961.425 103.42C961.929 103.626 962.496 103.729 963.126 103.729C963.782 103.729 964.362 103.613 964.866 103.381C965.37 103.149 965.764 102.827 966.049 102.416C966.334 102.005 966.477 101.531 966.477 100.994C966.477 100.451 966.324 99.9702 966.019 99.5526C965.721 99.1283 965.29 98.7969 964.727 98.5582C964.17 98.3196 963.507 98.2003 962.738 98.2003H960.839V95.0384H962.738C963.388 95.0384 963.961 94.9257 964.458 94.7003C964.962 94.4749 965.353 94.1634 965.631 93.7656C965.91 93.3613 966.049 92.8906 966.049 92.3537C966.049 91.8433 965.926 91.3958 965.681 91.0114C965.442 90.6203 965.104 90.3153 964.667 90.0966C964.236 89.8778 963.732 89.7685 963.156 89.7685C962.572 89.7685 962.039 89.8745 961.555 90.0866C961.071 90.2921 960.683 90.5871 960.391 90.9716C960.1 91.3561 959.944 91.8068 959.924 92.3239H955.798C955.817 91.1506 956.152 90.1165 956.802 89.2216C957.451 88.3267 958.326 87.6274 959.427 87.1236C960.534 86.6132 961.783 86.358 963.175 86.358C964.581 86.358 965.81 86.6132 966.864 87.1236C967.918 87.634 968.737 88.3234 969.32 89.1918C969.91 90.0535 970.202 91.0213 970.195 92.0952C970.202 93.2353 969.847 94.1866 969.131 94.9489C968.422 95.7112 967.497 96.1951 966.357 96.4006V96.5597C967.855 96.7519 968.996 97.2723 969.778 98.1207C970.567 98.9626 970.958 100.017 970.951 101.283C970.958 102.443 970.623 103.473 969.947 104.375C969.277 105.277 968.353 105.986 967.173 106.503C965.993 107.02 964.64 107.278 963.116 107.278Z" fill="#54595E"/>
<path d="M954.654 118.912V117.818H962.291V118.912H959.089V128H957.856V118.912H954.654ZM966.029 128.159C965.34 128.159 964.735 127.995 964.215 127.667C963.698 127.339 963.293 126.88 963.002 126.29C962.713 125.7 962.569 125.01 962.569 124.222C962.569 123.426 962.713 122.732 963.002 122.138C963.293 121.545 963.698 121.085 964.215 120.756C964.735 120.428 965.34 120.264 966.029 120.264C966.719 120.264 967.322 120.428 967.839 120.756C968.359 121.085 968.764 121.545 969.052 122.138C969.344 122.732 969.49 123.426 969.49 124.222C969.49 125.01 969.344 125.7 969.052 126.29C968.764 126.88 968.359 127.339 967.839 127.667C967.322 127.995 966.719 128.159 966.029 128.159ZM966.029 127.105C966.553 127.105 966.984 126.971 967.322 126.702C967.66 126.434 967.91 126.081 968.073 125.643C968.235 125.206 968.316 124.732 968.316 124.222C968.316 123.711 968.235 123.236 968.073 122.795C967.91 122.354 967.66 121.998 967.322 121.726C966.984 121.454 966.553 121.318 966.029 121.318C965.506 121.318 965.075 121.454 964.737 121.726C964.399 121.998 964.148 122.354 963.986 122.795C963.824 123.236 963.742 123.711 963.742 124.222C963.742 124.732 963.824 125.206 963.986 125.643C964.148 126.081 964.399 126.434 964.737 126.702C965.075 126.971 965.506 127.105 966.029 127.105ZM974.602 120.364V121.358H970.644V120.364H974.602ZM971.798 118.534H972.971V125.812C972.971 126.144 973.019 126.393 973.115 126.558C973.215 126.721 973.341 126.83 973.493 126.886C973.649 126.939 973.813 126.966 973.985 126.966C974.114 126.966 974.221 126.959 974.303 126.946C974.386 126.929 974.453 126.916 974.502 126.906L974.741 127.96C974.661 127.99 974.55 128.02 974.408 128.05C974.265 128.083 974.085 128.099 973.866 128.099C973.534 128.099 973.21 128.028 972.891 127.886C972.577 127.743 972.315 127.526 972.106 127.234C971.9 126.943 971.798 126.575 971.798 126.131V118.534ZM978.614 128.179C978.13 128.179 977.691 128.088 977.296 127.906C976.902 127.72 976.589 127.453 976.357 127.105C976.125 126.754 976.009 126.33 976.009 125.832C976.009 125.395 976.095 125.04 976.267 124.768C976.44 124.493 976.67 124.278 976.958 124.122C977.247 123.966 977.565 123.85 977.913 123.774C978.264 123.695 978.617 123.632 978.972 123.585C979.436 123.526 979.812 123.481 980.1 123.451C980.392 123.418 980.604 123.363 980.737 123.287C980.873 123.211 980.94 123.078 980.94 122.889V122.849C980.94 122.359 980.806 121.978 980.538 121.706C980.273 121.434 979.87 121.298 979.33 121.298C978.77 121.298 978.33 121.421 978.012 121.666C977.694 121.911 977.47 122.173 977.341 122.452L976.227 122.054C976.426 121.59 976.691 121.229 977.023 120.97C977.358 120.708 977.722 120.526 978.117 120.423C978.514 120.317 978.905 120.264 979.29 120.264C979.535 120.264 979.817 120.294 980.135 120.354C980.457 120.41 980.766 120.528 981.065 120.707C981.366 120.886 981.617 121.156 981.815 121.517C982.014 121.878 982.114 122.362 982.114 122.969V128H980.94V126.966H980.881C980.801 127.132 980.669 127.309 980.483 127.498C980.297 127.687 980.051 127.848 979.742 127.98C979.434 128.113 979.058 128.179 978.614 128.179ZM978.793 127.125C979.257 127.125 979.648 127.034 979.966 126.852C980.288 126.669 980.529 126.434 980.692 126.146C980.858 125.857 980.94 125.554 980.94 125.236V124.162C980.891 124.222 980.781 124.276 980.612 124.326C980.447 124.372 980.254 124.414 980.036 124.45C979.82 124.483 979.61 124.513 979.404 124.54C979.202 124.563 979.038 124.583 978.912 124.599C978.607 124.639 978.322 124.704 978.057 124.793C977.795 124.879 977.583 125.01 977.421 125.186C977.261 125.358 977.182 125.594 977.182 125.892C977.182 126.3 977.333 126.608 977.634 126.817C977.939 127.022 978.325 127.125 978.793 127.125ZM985.429 117.818V128H984.255V117.818H985.429ZM1000.27 122.909C1000.27 123.983 1000.07 124.911 999.683 125.693C999.296 126.475 998.764 127.079 998.087 127.503C997.411 127.927 996.639 128.139 995.771 128.139C994.902 128.139 994.13 127.927 993.454 127.503C992.778 127.079 992.246 126.475 991.858 125.693C991.47 124.911 991.276 123.983 991.276 122.909C991.276 121.835 991.47 120.907 991.858 120.125C992.246 119.343 992.778 118.74 993.454 118.315C994.13 117.891 994.902 117.679 995.771 117.679C996.639 117.679 997.411 117.891 998.087 118.315C998.764 118.74 999.296 119.343 999.683 120.125C1000.07 120.907 1000.27 121.835 1000.27 122.909ZM999.072 122.909C999.072 122.027 998.924 121.283 998.629 120.677C998.338 120.07 997.942 119.611 997.441 119.3C996.944 118.988 996.387 118.832 995.771 118.832C995.154 118.832 994.596 118.988 994.095 119.3C993.598 119.611 993.202 120.07 992.907 120.677C992.615 121.283 992.47 122.027 992.47 122.909C992.47 123.791 992.615 124.535 992.907 125.141C993.202 125.748 993.598 126.207 994.095 126.518C994.596 126.83 995.154 126.986 995.771 126.986C996.387 126.986 996.944 126.83 997.441 126.518C997.942 126.207 998.338 125.748 998.629 125.141C998.924 124.535 999.072 123.791 999.072 122.909ZM1006.99 124.878V120.364H1008.16V128H1006.99V126.707H1006.91C1006.73 127.095 1006.45 127.425 1006.08 127.697C1005.7 127.965 1005.22 128.099 1004.64 128.099C1004.17 128.099 1003.74 127.995 1003.37 127.786C1003 127.574 1002.71 127.256 1002.5 126.832C1002.29 126.404 1002.18 125.866 1002.18 125.216V120.364H1003.35V125.136C1003.35 125.693 1003.51 126.137 1003.82 126.469C1004.13 126.8 1004.54 126.966 1005.02 126.966C1005.31 126.966 1005.61 126.891 1005.91 126.742C1006.22 126.593 1006.47 126.364 1006.68 126.056C1006.89 125.748 1006.99 125.355 1006.99 124.878ZM1013.63 120.364V121.358H1009.68V120.364H1013.63ZM1010.83 118.534H1012V125.812C1012 126.144 1012.05 126.393 1012.15 126.558C1012.25 126.721 1012.37 126.83 1012.53 126.886C1012.68 126.939 1012.85 126.966 1013.02 126.966C1013.15 126.966 1013.25 126.959 1013.34 126.946C1013.42 126.929 1013.49 126.916 1013.54 126.906L1013.77 127.96C1013.69 127.99 1013.58 128.02 1013.44 128.05C1013.3 128.083 1013.12 128.099 1012.9 128.099C1012.57 128.099 1012.24 128.028 1011.92 127.886C1011.61 127.743 1011.35 127.526 1011.14 127.234C1010.93 126.943 1010.83 126.575 1010.83 126.131V118.534ZM1016.74 117.818V128H1015.56V117.818H1016.74ZM1018.89 128V120.364H1020.06V128H1018.89ZM1019.48 119.091C1019.25 119.091 1019.06 119.013 1018.89 118.857C1018.73 118.701 1018.65 118.514 1018.65 118.295C1018.65 118.077 1018.73 117.889 1018.89 117.734C1019.06 117.578 1019.25 117.5 1019.48 117.5C1019.71 117.5 1019.91 117.578 1020.07 117.734C1020.24 117.889 1020.32 118.077 1020.32 118.295C1020.32 118.514 1020.24 118.701 1020.07 118.857C1019.91 119.013 1019.71 119.091 1019.48 119.091ZM1025.41 128.159C1024.67 128.159 1024.04 127.997 1023.51 127.672C1022.98 127.344 1022.57 126.886 1022.28 126.3C1021.99 125.71 1021.85 125.024 1021.85 124.241C1021.85 123.459 1021.99 122.77 1022.28 122.173C1022.57 121.573 1022.97 121.106 1023.48 120.771C1024 120.433 1024.6 120.264 1025.29 120.264C1025.69 120.264 1026.08 120.33 1026.47 120.463C1026.86 120.596 1027.21 120.811 1027.53 121.109C1027.85 121.404 1028.1 121.795 1028.29 122.283C1028.48 122.77 1028.57 123.37 1028.57 124.082V124.58H1022.69V123.565H1027.38C1027.38 123.134 1027.29 122.75 1027.12 122.412C1026.95 122.074 1026.71 121.807 1026.39 121.612C1026.08 121.416 1025.72 121.318 1025.29 121.318C1024.82 121.318 1024.42 121.434 1024.08 121.666C1023.74 121.895 1023.48 122.193 1023.3 122.561C1023.11 122.929 1023.02 123.323 1023.02 123.744V124.42C1023.02 124.997 1023.12 125.486 1023.32 125.887C1023.52 126.285 1023.8 126.588 1024.16 126.797C1024.52 127.002 1024.94 127.105 1025.41 127.105C1025.72 127.105 1026 127.062 1026.25 126.976C1026.5 126.886 1026.71 126.754 1026.9 126.578C1027.08 126.399 1027.22 126.177 1027.32 125.912L1028.45 126.23C1028.33 126.615 1028.13 126.953 1027.85 127.244C1027.57 127.533 1027.22 127.758 1026.81 127.92C1026.39 128.08 1025.93 128.159 1025.41 128.159ZM1030.36 128V120.364H1031.49V121.517H1031.57C1031.71 121.139 1031.96 120.833 1032.33 120.597C1032.69 120.362 1033.1 120.244 1033.56 120.244C1033.64 120.244 1033.75 120.246 1033.88 120.249C1034.01 120.253 1034.11 120.258 1034.18 120.264V121.457C1034.14 121.447 1034.04 121.433 1033.9 121.413C1033.76 121.389 1033.61 121.378 1033.46 121.378C1033.09 121.378 1032.76 121.456 1032.46 121.612C1032.18 121.764 1031.95 121.976 1031.78 122.248C1031.61 122.516 1031.53 122.823 1031.53 123.168V128H1030.36ZM1042.8 128H1039.66V117.818H1042.94C1043.93 117.818 1044.78 118.022 1045.48 118.43C1046.18 118.834 1046.72 119.416 1047.09 120.175C1047.47 120.93 1047.66 121.835 1047.66 122.889C1047.66 123.95 1047.47 124.863 1047.09 125.629C1046.71 126.391 1046.16 126.978 1045.44 127.388C1044.72 127.796 1043.84 128 1042.8 128ZM1040.9 126.906H1042.72C1043.57 126.906 1044.26 126.744 1044.82 126.419C1045.37 126.094 1045.78 125.632 1046.06 125.032C1046.33 124.432 1046.46 123.718 1046.46 122.889C1046.46 122.067 1046.33 121.36 1046.06 120.766C1045.79 120.17 1045.39 119.712 1044.86 119.394C1044.32 119.073 1043.66 118.912 1042.86 118.912H1040.9V126.906ZM1051.81 128.179C1051.33 128.179 1050.89 128.088 1050.5 127.906C1050.1 127.72 1049.79 127.453 1049.56 127.105C1049.32 126.754 1049.21 126.33 1049.21 125.832C1049.21 125.395 1049.29 125.04 1049.47 124.768C1049.64 124.493 1049.87 124.278 1050.16 124.122C1050.45 123.966 1050.76 123.85 1051.11 123.774C1051.46 123.695 1051.82 123.632 1052.17 123.585C1052.63 123.526 1053.01 123.481 1053.3 123.451C1053.59 123.418 1053.8 123.363 1053.94 123.287C1054.07 123.211 1054.14 123.078 1054.14 122.889V122.849C1054.14 122.359 1054.01 121.978 1053.74 121.706C1053.47 121.434 1053.07 121.298 1052.53 121.298C1051.97 121.298 1051.53 121.421 1051.21 121.666C1050.89 121.911 1050.67 122.173 1050.54 122.452L1049.43 122.054C1049.63 121.59 1049.89 121.229 1050.22 120.97C1050.56 120.708 1050.92 120.526 1051.32 120.423C1051.71 120.317 1052.1 120.264 1052.49 120.264C1052.73 120.264 1053.02 120.294 1053.33 120.354C1053.66 120.41 1053.97 120.528 1054.26 120.707C1054.57 120.886 1054.82 121.156 1055.01 121.517C1055.21 121.878 1055.31 122.362 1055.31 122.969V128H1054.14V126.966H1054.08C1054 127.132 1053.87 127.309 1053.68 127.498C1053.5 127.687 1053.25 127.848 1052.94 127.98C1052.63 128.113 1052.26 128.179 1051.81 128.179ZM1051.99 127.125C1052.46 127.125 1052.85 127.034 1053.17 126.852C1053.49 126.669 1053.73 126.434 1053.89 126.146C1054.06 125.857 1054.14 125.554 1054.14 125.236V124.162C1054.09 124.222 1053.98 124.276 1053.81 124.326C1053.65 124.372 1053.45 124.414 1053.23 124.45C1053.02 124.483 1052.81 124.513 1052.6 124.54C1052.4 124.563 1052.24 124.583 1052.11 124.599C1051.81 124.639 1051.52 124.704 1051.26 124.793C1050.99 124.879 1050.78 125.01 1050.62 125.186C1050.46 125.358 1050.38 125.594 1050.38 125.892C1050.38 126.3 1050.53 126.608 1050.83 126.817C1051.14 127.022 1051.52 127.125 1051.99 127.125ZM1060.78 120.364V121.358H1056.82V120.364H1060.78ZM1057.97 118.534H1059.14V125.812C1059.14 126.144 1059.19 126.393 1059.29 126.558C1059.39 126.721 1059.51 126.83 1059.67 126.886C1059.82 126.939 1059.99 126.966 1060.16 126.966C1060.29 126.966 1060.39 126.959 1060.48 126.946C1060.56 126.929 1060.63 126.916 1060.68 126.906L1060.91 127.96C1060.84 127.99 1060.72 128.02 1060.58 128.05C1060.44 128.083 1060.26 128.099 1060.04 128.099C1059.71 128.099 1059.38 128.028 1059.07 127.886C1058.75 127.743 1058.49 127.526 1058.28 127.234C1058.07 126.943 1057.97 126.575 1057.97 126.131V118.534ZM1064.79 128.179C1064.3 128.179 1063.86 128.088 1063.47 127.906C1063.08 127.72 1062.76 127.453 1062.53 127.105C1062.3 126.754 1062.18 126.33 1062.18 125.832C1062.18 125.395 1062.27 125.04 1062.44 124.768C1062.61 124.493 1062.84 124.278 1063.13 124.122C1063.42 123.966 1063.74 123.85 1064.09 123.774C1064.44 123.695 1064.79 123.632 1065.15 123.585C1065.61 123.526 1065.99 123.481 1066.27 123.451C1066.57 123.418 1066.78 123.363 1066.91 123.287C1067.05 123.211 1067.11 123.078 1067.11 122.889V122.849C1067.11 122.359 1066.98 121.978 1066.71 121.706C1066.45 121.434 1066.04 121.298 1065.5 121.298C1064.94 121.298 1064.5 121.421 1064.19 121.666C1063.87 121.911 1063.64 122.173 1063.51 122.452L1062.4 122.054C1062.6 121.59 1062.87 121.229 1063.2 120.97C1063.53 120.708 1063.9 120.526 1064.29 120.423C1064.69 120.317 1065.08 120.264 1065.46 120.264C1065.71 120.264 1065.99 120.294 1066.31 120.354C1066.63 120.41 1066.94 120.528 1067.24 120.707C1067.54 120.886 1067.79 121.156 1067.99 121.517C1068.19 121.878 1068.29 122.362 1068.29 122.969V128H1067.11V126.966H1067.05C1066.98 127.132 1066.84 127.309 1066.66 127.498C1066.47 127.687 1066.22 127.848 1065.92 127.98C1065.61 128.113 1065.23 128.179 1064.79 128.179ZM1064.97 127.125C1065.43 127.125 1065.82 127.034 1066.14 126.852C1066.46 126.669 1066.7 126.434 1066.87 126.146C1067.03 125.857 1067.11 125.554 1067.11 125.236V124.162C1067.06 124.222 1066.96 124.276 1066.79 124.326C1066.62 124.372 1066.43 124.414 1066.21 124.45C1065.99 124.483 1065.78 124.513 1065.58 124.54C1065.38 124.563 1065.21 124.583 1065.09 124.599C1064.78 124.639 1064.5 124.704 1064.23 124.793C1063.97 124.879 1063.76 125.01 1063.59 125.186C1063.44 125.358 1063.36 125.594 1063.36 125.892C1063.36 126.3 1063.51 126.608 1063.81 126.817C1064.11 127.022 1064.5 127.125 1064.97 127.125Z" fill="#54595E"/>
<g clip-path="url(#clip6_2268_23001)">
<path fill-rule="evenodd" clip-rule="evenodd" d="M1078.98 120.75C1078.98 120.684 1078.96 120.62 1078.91 120.573C1078.86 120.526 1078.8 120.5 1078.73 120.5H1075.42C1075.22 120.5 1075.03 120.579 1074.89 120.72C1074.75 120.86 1074.67 121.051 1074.67 121.25V126.25C1074.67 126.449 1074.75 126.64 1074.89 126.78C1075.03 126.921 1075.22 127 1075.42 127H1080.42C1080.62 127 1080.81 126.921 1080.95 126.78C1081.09 126.64 1081.17 126.449 1081.17 126.25V122.932C1081.17 122.866 1081.14 122.802 1081.09 122.755C1081.05 122.708 1080.98 122.682 1080.92 122.682C1080.85 122.682 1080.79 122.708 1080.74 122.755C1080.69 122.802 1080.67 122.866 1080.67 122.932V126.25C1080.67 126.316 1080.64 126.38 1080.59 126.427C1080.55 126.474 1080.48 126.5 1080.42 126.5H1075.42C1075.35 126.5 1075.29 126.474 1075.24 126.427C1075.19 126.38 1075.17 126.316 1075.17 126.25V121.25C1075.17 121.184 1075.19 121.12 1075.24 121.073C1075.29 121.026 1075.35 121 1075.42 121H1078.73C1078.8 121 1078.86 120.974 1078.91 120.927C1078.96 120.88 1078.98 120.816 1078.98 120.75Z" fill="#ABB5BE" stroke="#ABB5BE" stroke-width="0.5"/>
<path fill-rule="evenodd" clip-rule="evenodd" d="M1082.67 119.25C1082.67 119.184 1082.64 119.12 1082.59 119.073C1082.55 119.026 1082.48 119 1082.42 119H1079.92C1079.85 119 1079.79 119.026 1079.74 119.073C1079.69 119.12 1079.67 119.184 1079.67 119.25C1079.67 119.316 1079.69 119.38 1079.74 119.427C1079.79 119.474 1079.85 119.5 1079.92 119.5H1081.81L1077.74 123.573C1077.72 123.596 1077.7 123.624 1077.69 123.654C1077.67 123.685 1077.67 123.717 1077.67 123.75C1077.67 123.783 1077.67 123.815 1077.69 123.846C1077.7 123.876 1077.72 123.904 1077.74 123.927C1077.76 123.95 1077.79 123.969 1077.82 123.981C1077.85 123.994 1077.88 124 1077.92 124C1077.95 124 1077.98 123.994 1078.01 123.981C1078.04 123.969 1078.07 123.95 1078.09 123.927L1082.17 119.854V121.75C1082.17 121.816 1082.19 121.88 1082.24 121.927C1082.29 121.974 1082.35 122 1082.42 122C1082.48 122 1082.55 121.974 1082.59 121.927C1082.64 121.88 1082.67 121.816 1082.67 121.75V119.25Z" fill="#ABB5BE" stroke="#ABB5BE" stroke-width="0.5"/>
</g>
</g>
<mask id="path-23-inside-3_2268_23001" fill="white">
<path d="M10 16C10 12.6863 12.6863 10 16 10H1184C1187.31 10 1190 12.6863 1190 16V61H10V16Z"/>
</mask>
<path d="M10 16C10 12.6863 12.6863 10 16 10H1184C1187.31 10 1190 12.6863 1190 16V61H10V16Z" fill="white"/>
<path d="M35.7195 33.2536H33.8601C33.8071 32.9486 33.7093 32.6785 33.5668 32.4432C33.4242 32.2045 33.2469 32.0024 33.0348 31.8366C32.8227 31.6709 32.5807 31.5466 32.3089 31.4638C32.0405 31.3776 31.7505 31.3345 31.4389 31.3345C30.8854 31.3345 30.3949 31.4737 29.9673 31.7521C29.5398 32.0272 29.205 32.4316 28.9631 32.9652C28.7211 33.4955 28.6001 34.1435 28.6001 34.9091C28.6001 35.688 28.7211 36.3442 28.9631 36.8778C29.2083 37.4081 29.5431 37.8092 29.9673 38.081C30.3949 38.3494 30.8838 38.4837 31.4339 38.4837C31.7389 38.4837 32.0239 38.4439 32.2891 38.3643C32.5575 38.2815 32.7978 38.1605 33.0099 38.0014C33.2254 37.8423 33.406 37.6468 33.5518 37.4148C33.701 37.1828 33.8037 36.9176 33.8601 36.6193L35.7195 36.6293C35.6499 37.1132 35.4991 37.5672 35.267 37.9915C35.0384 38.4157 34.7384 38.7902 34.3672 39.1151C33.996 39.4366 33.5618 39.6884 33.0646 39.8707C32.5675 40.0497 32.0156 40.1392 31.4091 40.1392C30.5142 40.1392 29.7154 39.9321 29.0128 39.5178C28.3101 39.1035 27.7566 38.5052 27.3523 37.723C26.9479 36.9408 26.7457 36.0028 26.7457 34.9091C26.7457 33.812 26.9496 32.8741 27.3572 32.0952C27.7649 31.313 28.3201 30.7147 29.0227 30.3004C29.7254 29.8861 30.5208 29.679 31.4091 29.679C31.9759 29.679 32.5028 29.7585 32.9901 29.9176C33.4773 30.0767 33.9115 30.3104 34.2926 30.6186C34.6738 30.9235 34.987 31.2981 35.2322 31.7422C35.4808 32.183 35.6432 32.6868 35.7195 33.2536ZM39.1287 35.5256V40H37.329V29.8182H39.089V33.6612H39.1784C39.3574 33.2304 39.6342 32.8906 40.0087 32.642C40.3865 32.3902 40.8671 32.2642 41.4505 32.2642C41.9808 32.2642 42.4431 32.3752 42.8375 32.5973C43.2319 32.8194 43.5369 33.1442 43.7523 33.5717C43.9711 33.9993 44.0804 34.5213 44.0804 35.1378V40H42.2807V35.4162C42.2807 34.9025 42.1481 34.5031 41.883 34.218C41.6212 33.9297 41.2533 33.7855 40.7793 33.7855C40.4611 33.7855 40.1761 33.8551 39.9242 33.9943C39.6756 34.1302 39.4801 34.3274 39.3375 34.5859C39.1983 34.8445 39.1287 35.1577 39.1287 35.5256ZM49.2956 40.1491C48.53 40.1491 47.8688 39.9901 47.312 39.6719C46.7585 39.3504 46.3326 38.8963 46.0343 38.3097C45.736 37.7197 45.5868 37.0253 45.5868 36.2266C45.5868 35.4411 45.736 34.7517 46.0343 34.1584C46.3359 33.5618 46.7568 33.0978 47.2971 32.7663C47.8373 32.4316 48.472 32.2642 49.2012 32.2642C49.6718 32.2642 50.1159 32.3404 50.5336 32.4929C50.9545 32.642 51.3257 32.8741 51.6472 33.1889C51.972 33.5038 52.2272 33.9048 52.4128 34.392C52.5984 34.8759 52.6912 35.4527 52.6912 36.1222V36.674H46.432V35.4609H50.9661C50.9628 35.1162 50.8882 34.8097 50.7424 34.5412C50.5965 34.2694 50.3927 34.0556 50.1309 33.8999C49.8723 33.7441 49.5707 33.6662 49.226 33.6662C48.8581 33.6662 48.535 33.7557 48.2566 33.9347C47.9782 34.1103 47.7611 34.3423 47.6053 34.6307C47.4528 34.9157 47.3749 35.2289 47.3716 35.5703V36.6293C47.3716 37.0734 47.4528 37.4545 47.6152 37.7727C47.7776 38.0876 48.0047 38.3295 48.2963 38.4986C48.588 38.6643 48.9294 38.7472 49.3205 38.7472C49.5823 38.7472 49.8193 38.7107 50.0314 38.6378C50.2435 38.5616 50.4275 38.4505 50.5833 38.3047C50.7391 38.1589 50.8567 37.9782 50.9363 37.7628L52.6167 37.9517C52.5106 38.3958 52.3084 38.7836 52.0101 39.1151C51.7151 39.4432 51.3373 39.6984 50.8766 39.8807C50.4159 40.0597 49.8889 40.1491 49.2956 40.1491ZM57.5447 40.1491C56.7824 40.1491 56.1278 39.9818 55.581 39.647C55.0374 39.3123 54.6181 38.8499 54.3232 38.2599C54.0315 37.6667 53.8857 36.9839 53.8857 36.2116C53.8857 35.4361 54.0348 34.7517 54.3331 34.1584C54.6314 33.5618 55.0523 33.0978 55.5959 32.7663C56.1428 32.4316 56.7891 32.2642 57.5348 32.2642C58.1546 32.2642 58.7031 32.3786 59.1804 32.6072C59.661 32.8326 60.0438 33.1525 60.3288 33.5668C60.6139 33.9777 60.7763 34.4583 60.8161 35.0085H59.0959C59.0263 34.6406 58.8606 34.334 58.5987 34.0888C58.3402 33.8402 57.9938 33.7159 57.5597 33.7159C57.1918 33.7159 56.8686 33.8153 56.5902 34.0142C56.3118 34.2098 56.0947 34.4915 55.9389 34.8594C55.7865 35.2273 55.7102 35.6681 55.7102 36.1818C55.7102 36.7022 55.7865 37.1496 55.9389 37.5241C56.0914 37.8954 56.3052 38.1821 56.5803 38.3842C56.8587 38.5831 57.1851 38.6825 57.5597 38.6825C57.8248 38.6825 58.0618 38.6328 58.2706 38.5334C58.4827 38.4306 58.66 38.2831 58.8026 38.0909C58.9451 37.8987 59.0429 37.665 59.0959 37.3899H60.8161C60.773 37.9302 60.6139 38.4091 60.3388 38.8267C60.0637 39.241 59.6892 39.5658 59.2152 39.8011C58.7412 40.0331 58.1844 40.1491 57.5447 40.1491ZM63.9345 37.6037L63.9295 35.4311H64.2179L66.9622 32.3636H69.0652L65.6895 36.1222H65.3166L63.9345 37.6037ZM62.2939 40V29.8182H64.0936V40H62.2939ZM67.0865 40L64.6007 36.5249L65.8137 35.2571L69.2392 40H67.0865ZM77.267 40H73.8168V29.8182H77.3366C78.3475 29.8182 79.2159 30.022 79.9418 30.4297C80.6709 30.834 81.2311 31.4157 81.6222 32.1747C82.0133 32.9337 82.2088 33.8419 82.2088 34.8991C82.2088 35.9598 82.0116 36.8712 81.6172 37.6335C81.2261 38.3958 80.661 38.9808 79.9219 39.3885C79.1861 39.7962 78.3011 40 77.267 40ZM75.6612 38.4041H77.1776C77.8868 38.4041 78.4785 38.2749 78.9524 38.0163C79.4264 37.7545 79.7827 37.3651 80.0213 36.848C80.2599 36.3277 80.3793 35.678 80.3793 34.8991C80.3793 34.1203 80.2599 33.474 80.0213 32.9602C79.7827 32.4432 79.4297 32.0571 78.9624 31.8018C78.4983 31.5433 77.9216 31.4141 77.2322 31.4141H75.6612V38.4041ZM86.0792 40.1541C85.5953 40.1541 85.1594 40.0679 84.7717 39.8956C84.3872 39.7199 84.0823 39.4614 83.8569 39.12C83.6348 38.7786 83.5238 38.3577 83.5238 37.8572C83.5238 37.4264 83.6033 37.0701 83.7624 36.7884C83.9215 36.5066 84.1386 36.2812 84.4137 36.1122C84.6888 35.9432 84.9987 35.8156 85.3434 35.7294C85.6914 35.6399 86.051 35.5753 86.4222 35.5355C86.8697 35.4891 87.2326 35.4477 87.511 35.4112C87.7894 35.3714 87.9916 35.3118 88.1175 35.2322C88.2468 35.1494 88.3114 35.0218 88.3114 34.8494V34.8196C88.3114 34.4451 88.2004 34.1551 87.9783 33.9496C87.7563 33.7441 87.4364 33.6413 87.0188 33.6413C86.578 33.6413 86.2283 33.7375 85.9698 33.9297C85.7146 34.1219 85.5423 34.349 85.4528 34.6108L83.7724 34.3722C83.9049 33.9081 84.1237 33.5204 84.4286 33.2088C84.7335 32.8939 85.1064 32.6586 85.5472 32.5028C85.988 32.3438 86.4753 32.2642 87.0089 32.2642C87.3768 32.2642 87.743 32.3073 88.1076 32.3935C88.4722 32.4796 88.8053 32.6222 89.1069 32.821C89.4085 33.0166 89.6505 33.2834 89.8327 33.6214C90.0183 33.9595 90.1112 34.3821 90.1112 34.8892V40H88.381V38.951H88.3214C88.212 39.1631 88.0579 39.362 87.859 39.5476C87.6635 39.7299 87.4165 39.8774 87.1183 39.9901C86.8233 40.0994 86.4769 40.1541 86.0792 40.1541ZM86.5465 38.8317C86.9078 38.8317 87.221 38.7604 87.4862 38.6179C87.7513 38.4721 87.9551 38.2798 88.0977 38.0412C88.2435 37.8026 88.3164 37.5424 88.3164 37.2607V36.3608C88.2601 36.4072 88.1639 36.4503 88.0281 36.4901C87.8955 36.5298 87.7463 36.5646 87.5806 36.5945C87.4149 36.6243 87.2508 36.6508 87.0884 36.674C86.926 36.6972 86.7852 36.7171 86.6658 36.7337C86.3974 36.7701 86.1571 36.8298 85.945 36.9126C85.7328 36.9955 85.5655 37.1115 85.4428 37.2607C85.3202 37.4065 85.2589 37.5954 85.2589 37.8274C85.2589 38.1589 85.3799 38.4091 85.6218 38.5781C85.8638 38.7472 86.172 38.8317 86.5465 38.8317ZM95.734 32.3636V33.7557H91.3441V32.3636H95.734ZM92.4279 30.5341H94.2276V37.7031C94.2276 37.9451 94.2641 38.1307 94.337 38.2599C94.4132 38.3859 94.5127 38.4721 94.6353 38.5185C94.7579 38.5649 94.8938 38.5881 95.043 38.5881C95.1557 38.5881 95.2584 38.5798 95.3512 38.5632C95.4473 38.5466 95.5202 38.5317 95.57 38.5185L95.8732 39.9254C95.7771 39.9586 95.6396 39.995 95.4606 40.0348C95.2849 40.0746 95.0695 40.0978 94.8143 40.1044C94.3635 40.1177 93.9575 40.0497 93.5962 39.9006C93.235 39.7481 92.9483 39.5128 92.7362 39.1946C92.5273 38.8764 92.4246 38.4787 92.4279 38.0014V30.5341ZM99.4366 40.1541C98.9527 40.1541 98.5169 40.0679 98.1291 39.8956C97.7446 39.7199 97.4397 39.4614 97.2143 39.12C96.9922 38.7786 96.8812 38.3577 96.8812 37.8572C96.8812 37.4264 96.9608 37.0701 97.1199 36.7884C97.2789 36.5066 97.496 36.2812 97.7711 36.1122C98.0462 35.9432 98.3561 35.8156 98.7008 35.7294C99.0488 35.6399 99.4084 35.5753 99.7797 35.5355C100.227 35.4891 100.59 35.4477 100.868 35.4112C101.147 35.3714 101.349 35.3118 101.475 35.2322C101.604 35.1494 101.669 35.0218 101.669 34.8494V34.8196C101.669 34.4451 101.558 34.1551 101.336 33.9496C101.114 33.7441 100.794 33.6413 100.376 33.6413C99.9354 33.6413 99.5858 33.7375 99.3272 33.9297C99.072 34.1219 98.8997 34.349 98.8102 34.6108L97.1298 34.3722C97.2624 33.9081 97.4811 33.5204 97.786 33.2088C98.091 32.8939 98.4638 32.6586 98.9047 32.5028C99.3455 32.3438 99.8327 32.2642 100.366 32.2642C100.734 32.2642 101.1 32.3073 101.465 32.3935C101.83 32.4796 102.163 32.6222 102.464 32.821C102.766 33.0166 103.008 33.2834 103.19 33.6214C103.376 33.9595 103.469 34.3821 103.469 34.8892V40H101.738V38.951H101.679C101.569 39.1631 101.415 39.362 101.216 39.5476C101.021 39.7299 100.774 39.8774 100.476 39.9901C100.181 40.0994 99.8343 40.1541 99.4366 40.1541ZM99.9039 38.8317C100.265 38.8317 100.578 38.7604 100.844 38.6179C101.109 38.4721 101.313 38.2798 101.455 38.0412C101.601 37.8026 101.674 37.5424 101.674 37.2607V36.3608C101.617 36.4072 101.521 36.4503 101.385 36.4901C101.253 36.5298 101.104 36.5646 100.938 36.5945C100.772 36.6243 100.608 36.6508 100.446 36.674C100.283 36.6972 100.143 36.7171 100.023 36.7337C99.7548 36.7701 99.5145 36.8298 99.3024 36.9126C99.0903 36.9955 98.9229 37.1115 98.8002 37.2607C98.6776 37.4065 98.6163 37.5954 98.6163 37.8274C98.6163 38.1589 98.7373 38.4091 98.9792 38.5781C99.2212 38.7472 99.5294 38.8317 99.9039 38.8317Z" fill="#54595E"/>
<path d="M10 10H1190H10ZM1190 62H10V60H1190V62ZM10 61V10V61ZM1190 10V61V10Z" fill="#DEE2E6" mask="url(#path-23-inside-3_2268_23001)"/>
</g>
<defs>
<filter id="filter0_d_2268_23001" x="0" y="0" width="1200" height="168" filterUnits="userSpaceOnUse" color-interpolation-filters="sRGB">
<feFlood flood-opacity="0" result="BackgroundImageFix"/>
<feColorMatrix in="SourceAlpha" type="matrix" values="0 0 0 0 0 0 0 0 0 0 0 0 0 0 0 0 0 0 127 0" result="hardAlpha"/>
<feOffset/>
<feGaussianBlur stdDeviation="5"/>
<feComposite in2="hardAlpha" operator="out"/>
<feColorMatrix type="matrix" values="0 0 0 0 0.85 0 0 0 0 0.85 0 0 0 0 0.85 0 0 0 0.5 0"/>
<feBlend mode="normal" in2="BackgroundImageFix" result="effect1_dropShadow_2268_23001"/>
<feBlend mode="normal" in="SourceGraphic" in2="effect1_dropShadow_2268_23001" result="shape"/>
</filter>
<clipPath id="clip0_2268_23001">
<path d="M10 61H1190V152C1190 155.314 1187.31 158 1184 158H16C12.6863 158 10 155.314 10 152V61Z" fill="white"/>
</clipPath>
<clipPath id="clip1_2268_23001">
<rect width="40" height="40" fill="white" transform="translate(114.667 88.5)"/>
</clipPath>
<clipPath id="clip2_2268_23001">
<rect width="8" height="8" fill="white" transform="translate(291.667 119)"/>
</clipPath>
<clipPath id="clip3_2268_23001">
<rect width="40" height="40" fill="white" transform="matrix(-1 0 0 -1 541.667 128.5)"/>
</clipPath>
<clipPath id="clip4_2268_23001">
<rect width="8" height="8" fill="white" transform="translate(690.667 119)"/>
</clipPath>
<clipPath id="clip5_2268_23001">
<rect width="40" height="40" fill="white" transform="translate(903.667 88.5)"/>
</clipPath>
<clipPath id="clip6_2268_23001">
<rect width="8" height="8" fill="white" transform="translate(1074.67 119)"/>
</clipPath>
</defs>
</svg>
