<svg width="78" height="69" viewBox="0 0 78 69" fill="none" xmlns="http://www.w3.org/2000/svg">
<path opacity="0.25" d="M32.2654 11.8949C32.2654 11.8949 24.1851 7.22978 18.3537 17.3301C16.5692 20.4208 15.4136 23.3089 14.6985 25.9935C13.2266 26.4904 3.8906 29.827 6.67595 40.2156L14.833 38.03C18.9862 51.3631 35.8255 57.0452 35.8255 57.0452C35.8255 57.0452 32.3267 63.1054 40.4069 67.7705L43.052 58.524L49.7372 51.61C41.657 46.9448 38.1581 53.005 38.1581 53.005C38.1581 53.005 27.5139 44.5702 32.5452 30.9105L38.2418 34.1994C40.5744 30.1593 37.7112 26.6746 35.5522 24.8626L38.0131 20.6002C42.6782 12.5199 41.8244 9.33359 39.8044 8.1673C37.7843 7.00101 33.4317 9.87486 32.2654 11.8949ZM31.9529 17.1014C31.3114 18.2124 29.8775 18.5966 28.7665 17.9551C27.6555 17.3137 27.2713 15.8798 27.9127 14.7688C28.5542 13.6577 29.988 13.2735 31.0991 13.915C32.2101 14.5565 32.5943 15.9903 31.9529 17.1014Z" fill="url(#paint0_linear_700_4046)"/>
<path opacity="0.25" d="M47.6155 38.7075C47.6155 38.7075 49.1801 32.8685 56.4787 34.8242C58.7121 35.4226 60.5647 36.2163 62.1221 37.1186C63.0241 36.6719 68.8297 33.9234 72.3129 39.9587L67.5747 42.6944C71.7802 50.7052 66.6688 61.0228 66.6688 61.0228C66.6688 61.0228 71.0481 62.1962 69.4835 68.0352L64.0357 65.0109L57.8056 64.9061C59.3701 59.0671 63.7494 60.2405 63.7494 60.2405C63.7494 60.2405 64.7615 51.5 56.1987 47.5471L55.0957 51.6636C52.1762 50.8813 51.8916 47.9732 52.0505 46.154L48.9704 45.3287C43.1315 43.7642 42.0629 41.9133 42.454 40.4535C42.8452 38.9938 46.1558 38.3163 47.6155 38.7075ZM50.1438 40.9495C50.9467 41.1646 51.7796 40.6837 51.9947 39.8809C52.2098 39.078 51.729 38.2451 50.9261 38.03C50.1233 37.8149 49.2904 38.2958 49.0752 39.0986C48.8601 39.9015 49.341 40.7344 50.1438 40.9495Z" fill="url(#paint1_linear_700_4046)"/>
<defs>
<linearGradient id="paint0_linear_700_4046" x1="20.2035" y1="56.106" x2="45.8618" y2="11.6645" gradientUnits="userSpaceOnUse">
<stop stop-color="#16D9E3"/>
<stop offset="0.47" stop-color="#30C7EC"/>
<stop offset="1" stop-color="#46AEF7"/>
</linearGradient>
<linearGradient id="paint1_linear_700_4046" x1="73.3954" y1="53.4357" x2="41.2811" y2="44.8307" gradientUnits="userSpaceOnUse">
<stop stop-color="#16D9E3"/>
<stop offset="0.47" stop-color="#30C7EC"/>
<stop offset="1" stop-color="#46AEF7"/>
</linearGradient>
</defs>
</svg>
